<?xml version="1.0" encoding="UTF-8"?>
<svg id="_レイヤー_2" data-name="レイヤー 2" xmlns="http://www.w3.org/2000/svg" xmlns:xlink="http://www.w3.org/1999/xlink" viewBox="0 0 587.59 106.58">
  <defs>
    <style>
      .cls-1 {
        filter: url(#drop-shadow-1);
      }

      .cls-2 {
        fill: #fd1c8e;
      }

      .cls-3 {
        fill: none;
        stroke: #fff;
        stroke-miterlimit: 10;
        stroke-width: 8px;
      }
    </style>
    <filter id="drop-shadow-1" x="-3.73" y="-5.72" width="606" height="124" filterUnits="userSpaceOnUse">
      <feOffset dx="5.67" dy="2.83"/>
      <feGaussianBlur result="blur" stdDeviation="2.83"/>
      <feFlood flood-color="#000" flood-opacity=".57"/>
      <feComposite in2="blur" operator="in"/>
      <feComposite in="SourceGraphic"/>
    </filter>
  </defs>
  <g id="_レイヤー_1-2" data-name="レイヤー 1">
    <g class="cls-1">
      <path class="cls-3" d="M25.19,35.23c.56.43.78.98.74,1.57-.02.34-.14.73-.31,1.06-.38.67-1,1.17-1.74,1.12-.29-.02-.63-.13-.91-.35L5.66,26.72c-1.18-.76-1.73-1.48-1.65-2.8.08-1.37.71-2.02,2.03-2.73l18.58-9.65c.31-.18.65-.26.9-.24.78.05,1.33.67,1.59,1.32.18.35.25.75.23,1.14-.03.59-.31,1.11-.97,1.42l-17.66,8.97,16.48,11.08Z"/>
      <path class="cls-3" d="M51.81,36.94c.56.43.77.98.73,1.57-.02.34-.15.73-.31,1.06-.39.66-1.01,1.16-1.74,1.12-.29-.02-.63-.14-.91-.35l-17.25-12.02c-1.18-.76-1.72-1.49-1.64-2.81.09-1.37.72-2.02,2.04-2.72l18.64-9.55c.31-.18.65-.25.9-.24.78.05,1.33.67,1.58,1.33.17.35.25.75.22,1.14-.04.59-.32,1.11-.98,1.41l-17.71,8.87,16.42,11.18Z"/>
      <path class="cls-3" d="M108.82,14.52c-.93-.08-1.36-.8-1.28-1.78.08-1.03.63-1.72,1.56-1.64l8.69.72.55-6.59c.08-.93.89-1.3,1.97-1.21,1.12.09,1.87.6,1.79,1.53l-.55,6.59,7.52.62c.88.07,1.31.8,1.23,1.82s-.63,1.67-1.51,1.6l-3.08-.25c-.68,5.3-2.11,10.59-4.61,15.35,2.13,3.32,4.12,6.63,5.64,9.66.21.41.28.76.25,1.1-.05.63-.44,1.14-.96,1.49-.37.26-.82.38-1.21.34-.59-.05-1.15-.39-1.53-1.06-1.08-2.35-2.62-5.13-4.26-7.92-.39.56-.78,1.12-1.17,1.62-2.88,3.84-5.99,7.07-9.38,9.35-.62.39-1.18.64-1.72.6-.44-.04-.86-.27-1.17-.69-.36-.42-.51-.93-.48-1.37.04-.44.27-.86.79-1.21,3.7-2.54,6.84-5.48,9.46-9.15.56-.79,1.12-1.63,1.58-2.43-2.19-3.28-4.79-6.89-7.06-9.73-.31-.37-.43-.77-.4-1.16.04-.49.27-.91.8-1.31.37-.26.87-.42,1.36-.38.44.04.87.22,1.18.59,2,2.53,4.13,5.36,6.1,8.27,1.79-3.83,2.78-8.08,3.23-12.27l-13.33-1.1ZM131.48,23.52c.59.05,1.1.34,1.41.8,1.97,2.92,3.82,6.66,5,9.71.12.3.15.6.13.85-.05.63-.44,1.19-1.16,1.53-.36.17-.71.24-1.05.21-.63-.05-1.19-.44-1.47-1.2-1.05-2.79-2.86-6.38-4.79-9.25-.22-.31-.29-.66-.26-1,.04-.54.38-1.05,1-1.39.41-.21.81-.28,1.2-.24ZM151.25,17.49c.88.07,1.36.85,1.27,1.88s-.68,1.71-1.56,1.64l-4.44-.37-2.09,25.2c-.26,3.17-2.19,4.49-6.54,4.13-1.86-.15-3.65-.45-4.8-.84-.81-.26-1.21-.84-1.14-1.72.02-.2.03-.39.1-.63.32-.96.95-1.35,1.68-1.29.15.01.24.02.39.08,1.05.38,2.31.58,3.63.69,2.29.19,2.91-.15,3.04-1.67l2.01-24.27-11.04-.91c-.93-.08-1.36-.85-1.27-1.83.09-1.07.64-1.77,1.57-1.69l11.04.91.76-9.18c.08-.93.85-1.31,1.97-1.21s1.82.59,1.74,1.52l-.76,9.18,4.44.37Z"/>
      <path class="cls-3" d="M200.22,16.12c1.02.1,1.29.91,1.2,1.88-.09.98-.5,1.72-1.53,1.63l-33.76-3.15c-1.71-.16-2.35.37-2.49,1.88-.56,5.95-1.46,13.59-2.38,18.13-.92,4.54-2.58,10.24-4.68,13.74-.53.89-1.21,1.32-1.99,1.24-.24-.02-.53-.1-.86-.28-.7-.46-1.04-.93-.99-1.57.03-.34.17-.72.4-1.14,1.93-3.31,3.49-7.89,4.58-13.79.73-4.16,1.53-11.67,2.07-17.42.3-3.27,2.21-4.71,5.33-4.42l13.22,1.23.37-3.95c.09-.93.97-1.43,2.09-1.33,1.17.11,1.9.77,1.81,1.69l-.37,3.95,17.95,1.67ZM168.7,30.11s.15.01.2.02c1.06.2,1.69.9,1.59,1.92-.01.15-.02.24-.03.34-1.09,4.87-2.74,10.37-5,14.59-.41.75-1.08,1.08-1.82,1.01-.29-.03-.58-.1-.86-.28-.75-.41-1.14-.99-1.07-1.72.02-.24.1-.53.22-.82,2.23-3.83,3.84-8.99,4.77-13.73.18-.92.97-1.44,1.99-1.34ZM174.36,28.48c.08-.83.91-1.34,2.03-1.24s1.85.76,1.77,1.64l-1.8,19.32c-.09.98.3,1.5.87,1.71.9.38,2.21.55,3.72.69,2.15.2,3.14.1,4.16-.3,1.02-.4,1.22-.92,1.6-2.41.24-.96.61-2.8.78-4.65.1-1.07.84-1.64,1.92-1.54,0,0,.05,0,.1,0,1.12.15,1.68.94,1.59,1.97-.26,2.83-.84,5.83-1.46,7.24-.74,1.65-1.66,2.5-3.13,3-1.07.39-2.9.47-5.68.21-3.61-.34-5.26-.54-6.48-1.19-1.5-.83-2.08-2.01-1.87-4.26l1.88-20.2ZM188.39,27.42c.46.39.61.89.56,1.43-.04.44-.23.86-.56,1.28-.44.5-1,.74-1.54.69-.44-.04-.82-.22-1.18-.55-2.51-2.6-6.32-5.61-8.96-7.33-.55-.4-.81-.81-.76-1.3.03-.34.21-.72.55-1.13.49-.54,1-.74,1.54-.69.34.03.77.22,1.14.45,3.03,1.86,6.55,4.65,9.22,7.16ZM191.21,33.59c.06-.68.61-1.22,1.37-1.5.25-.07.55-.1.79-.07.73.07,1.33.57,1.56,1.18,1.82,4.75,3.23,10.24,3.83,14.87.03.2.01.39,0,.54-.08.88-.63,1.47-1.58,1.67-.25.03-.45.06-.69.03-.83-.08-1.47-.63-1.58-1.57-.5-4.67-1.82-10.06-3.58-14.41-.12-.26-.15-.51-.13-.75Z"/>
      <path class="cls-3" d="M215.19,16.16c.12-1.17.97-1.77,2.24-1.64,1.22.13,2.07.9,1.95,2.07l-.8,7.75,15.94,1.65.8-7.75c.12-1.17.92-1.78,2.19-1.65,1.22.13,2.07.91,1.95,2.07l-.8,7.75,7.46.77c1.32.14,1.77,1.02,1.66,2.09s-.74,1.89-2,1.76l-7.51-.78-.54,5.21c-.61,5.9-2.31,10.4-5,13.57-3.48,4.07-9.21,6.68-15.31,7.08-.25.02-.44,0-.64-.02-1.07-.11-1.65-.71-1.74-1.71-.03-.2-.01-.35,0-.54.1-.97.8-1.54,1.94-1.62,4.86-.33,9.84-2.72,12.53-5.89,2.24-2.62,3.57-6.38,4.16-12.13l.45-4.39-15.94-1.65-1.24,11.99c-.13,1.22-1.12,1.76-2.34,1.63-1.27-.13-1.98-.85-1.86-2.06l1.24-11.99-7.51-.78c-1.27-.13-1.71-1.06-1.6-2.14.11-1.07.73-1.8,2.04-1.66l7.46.77.81-7.8Z"/>
      <path class="cls-3" d="M254.04,41.76c-1.22-.14-1.81-.99-1.66-2.31.14-1.27.93-2.11,2.2-1.97l36.96,4.19c1.27.14,1.84,1.15,1.7,2.41-.15,1.32-.92,2.02-2.14,1.88l-37.05-4.2Z"/>
      <path class="cls-3" d="M306.96,53.76c-.78,6.27.24,6.79,9.82,7.98,5.16.64,10.56.82,15.09.59.2-.02.4,0,.59.02.97.12,1.63.79,1.63,1.98-.01.1-.03.24-.04.34-.14,1.12-.86,1.77-2.06,1.87-4.52.23-10.07-.06-16.63-.88-11.82-1.46-13.64-3.52-12.5-12.71l3.15-25.38c.16-1.31,1.15-1.73,2.32-1.59,1.31.16,2.02.79,1.86,2.11l-1.63,13.18c7.72-.18,16.92-1.9,23.77-4.91.42-.2.87-.24,1.26-.19.73.09,1.31.56,1.67,1.29.2.42.24.87.19,1.26-.09.73-.56,1.36-1.24,1.62-7.51,3.22-17.1,4.89-26.2,5l-1.04,8.41ZM334.71,27.03c.53.07.86.25,1.2.69,1.32,1.69,2.78,4.25,3.51,5.96.11.31.26.67.18,1.31-.09.73-.85,1.28-1.77,1.16-.58-.07-.94-.36-1.16-.98-.8-1.93-2.01-4.1-3.18-5.78-.25-.38-.4-.79-.34-1.23.08-.63.79-1.23,1.57-1.14ZM340.81,25.22c.54.07.85.3,1.24.75,1.11,1.37,2.65,4.13,3.33,5.79.11.31.21.72.14,1.25-.07.58-.75,1.29-1.68,1.17-.58-.07-.89-.36-1.17-.94-.84-1.98-1.87-4.03-3.01-5.61-.38-.49-.5-.75-.43-1.34.08-.63.89-1.17,1.57-1.09Z"/>
      <path class="cls-3" d="M352.47,37.66c-1.17-.16-1.68-1.07-1.51-2.38.16-1.17.94-1.85,2.06-1.7l24.75,3.11c2.09.28,3.35,1.15,4.06,2.53.3.73.43,1.54.3,2.51-.11.83-.44,1.77-.92,2.74-2.19,4.1-5.47,7.86-9.43,11.58,4.86,4.96,8.42,8.66,11.86,13.92.36.59.53,1.21.45,1.79s-.39,1.08-.84,1.47c-.5.43-1.17.58-1.8.5s-1.23-.41-1.64-1.01c-3.05-4.86-6.34-9.02-11.16-13.98-6.19,5.19-14.46,8.87-22.36,10.66-.41.09-.81.14-1.2.08-.83-.11-1.45-.59-1.63-1.46-.06-.26-.07-.55-.03-.85.12-.87.77-1.67,1.74-1.89,6.18-1.44,12.82-4.09,18.66-8.15,5.68-3.98,10.48-9.11,13.12-14.29.2-.42.35-.74.39-1.04.1-.73-.39-1.14-1.6-1.31l-23.25-2.86Z"/>
      <path class="cls-3" d="M392.06,58.58c-1.02-.15-1.44-1.35-1.29-2.36.15-1.07.88-2,1.9-1.86l40.79,5.86c1.02.15,1.45,1.25,1.3,2.32-.15,1.02-.89,2.05-1.91,1.9l-40.79-5.87Z"/>
      <path class="cls-3" d="M447.1,79.1c-2.71-.42-3.72-1.57-3.36-3.94l1.62-10.51c.37-2.42,1.65-3.27,4.5-2.83l23.59,3.64c2.91.45,3.91,1.64,3.54,4.07l-1.62,10.51c-.37,2.37-1.68,3.16-4.39,2.74l-5.91-.91-.46,2.96c-.17,1.11.07,1.5,2.67,2,.48.12,1.3.25,2.17.38,1.16.18,2.43.33,3.06.42,3.02.37,3.65.12,4.18-.74.44-.63.86-1.7,1.16-2.7.22-.81.78-1.17,1.65-1.03.15.02.29.04.43.12,1.09.32,1.49.97,1.37,1.75-.01.1-.02.15-.04.24-.41,1.67-1.15,3.29-1.94,4.21-1.15,1.36-2.52,1.84-6.47,1.43-.83-.08-2.24-.3-3.59-.5-1.36-.21-2.71-.42-3.48-.59-4.47-.89-5.32-1.81-4.92-4.43l.63-4.07-6-.93c-3.03,5.19-9.2,6.91-17.67,5.9-.92-.14-1.66-.8-1.6-1.83.02-.1.02-.15.04-.24.15-.97.83-1.51,1.8-1.36,6.65.93,11.09.12,13.52-3.07l-4.46-.69ZM462.32,59.53c.63.1.89.68.77,1.41-.1.68-.58,1.2-1.31,1.09l-16.18-2.5c-2.86-.44-3.75-1.42-3.37-3.84l1.57-10.17c.37-2.42,1.63-3.17,4.29-2.76l16.32,2.52c.68.1.99.65.87,1.42-.12.77-.59,1.25-1.27,1.14l-7.02-1.08-.36,2.33,3.92.61c1.99.31,2.81,1.08,2.51,3.02l-.28,1.84c-.29,1.89-1.32,2.42-3.3,2.12l-3.92-.61-.37,2.37,7.12,1.1ZM445.54,56.1c-.13.82.26.88,1.13,1.02l5.42.84.37-2.37-6.68-1.03-.24,1.55ZM446.13,52.27l12.5,1.93c.68.1.99,0,1.1-.67l.12-.77c.1-.68-.16-.87-.84-.97l-12.5-1.93-.37,2.42ZM453.54,48.6l.36-2.33-5.42-.84c-.87-.13-1.3.05-1.43.92l-.19,1.21,6.68,1.03ZM447.32,73.82l-.25,1.65c-.13.82.28,1.08,1.15,1.22l22.38,3.45c.87.13,1.39.02,1.51-.81l.25-1.65-25.04-3.87ZM473.1,72.9l-25.04-3.87-.37,2.42,25.04,3.87.37-2.42ZM473.67,69.17c.13-.82-.32-1.14-1.19-1.27l-22.38-3.45c-.87-.13-1.34.04-1.47.86l-.21,1.36,25.04,3.87.21-1.36ZM470.17,52.36c-1.08,1.22-2.24,2.33-3.49,3.33-.56.41-1.08.58-1.57.5-.34-.05-.66-.25-.96-.54-.34-.35-.52-.82-.44-1.31.06-.39.27-.8.71-1.08,2.31-1.78,4.59-4.35,6.28-7.26.34-.59.87-.81,1.5-.71.19.03.43.12.66.2.75.31,1.1.91,1,1.54-.04.24-.12.48-.31.7-.39.63-.78,1.22-1.23,1.84l12.35,1.91c.82.13,1.13.72.98,1.69-.15.97-.63,1.49-1.45,1.36l-14.04-2.17ZM467.49,60.08c-.77-.12-1.06-.81-.92-1.73.13-.82.61-1.39,1.34-1.28l13.75,2.12c.73.11,1.02.75.89,1.62-.14.92-.63,1.49-1.35,1.38l-13.71-2.12Z"/>
      <path class="cls-3" d="M537.43,74.25c-.56-.49-.71-1.07-.61-1.65.06-.34.22-.71.42-1.02.4-.58,1.13-1.05,1.85-.92.29.05.61.21.87.45l15.89,13.64c1.07.98,1.58,1.77,1.35,3.12-.23,1.3-.97,1.87-2.25,2.35l-19.62,7.65c-.32.14-.63.19-.92.14-.77-.13-1.26-.76-1.48-1.5-.09-.36-.12-.77-.06-1.1.1-.58.43-1.07,1.13-1.35l18.57-7.03-15.15-12.76Z"/>
      <path class="cls-3" d="M563.83,78.83c-.56-.5-.7-1.07-.6-1.65.06-.34.23-.71.43-1.02.4-.58,1.13-1.04,1.86-.91.29.05.61.21.86.45l15.81,13.73c1.07.99,1.57,1.77,1.33,3.12-.23,1.3-.98,1.87-2.26,2.33l-19.66,7.54c-.32.14-.63.19-.92.13-.77-.14-1.26-.77-1.47-1.51-.08-.36-.11-.77-.05-1.1.1-.58.44-1.07,1.14-1.34l18.61-6.93-15.07-12.85Z"/>
    </g>
    <g>
      <path class="cls-2" d="M25.19,35.23c.56.43.78.98.74,1.57-.02.34-.14.73-.31,1.06-.38.67-1,1.17-1.74,1.12-.29-.02-.63-.13-.91-.35L5.66,26.72c-1.18-.76-1.73-1.48-1.65-2.8.08-1.37.71-2.02,2.03-2.73l18.58-9.65c.31-.18.65-.26.9-.24.78.05,1.33.67,1.59,1.32.18.35.25.75.23,1.14-.03.59-.31,1.11-.97,1.42l-17.66,8.97,16.48,11.08Z"/>
      <path class="cls-2" d="M51.81,36.94c.56.43.77.98.73,1.57-.02.34-.15.73-.31,1.06-.39.66-1.01,1.16-1.74,1.12-.29-.02-.63-.14-.91-.35l-17.25-12.02c-1.18-.76-1.72-1.49-1.64-2.81.09-1.37.72-2.02,2.04-2.72l18.64-9.55c.31-.18.65-.25.9-.24.78.05,1.33.67,1.58,1.33.17.35.25.75.22,1.14-.04.59-.32,1.11-.98,1.41l-17.71,8.87,16.42,11.18Z"/>
      <path class="cls-2" d="M108.82,14.52c-.93-.08-1.36-.8-1.28-1.78.08-1.03.63-1.72,1.56-1.64l8.69.72.55-6.59c.08-.93.89-1.3,1.97-1.21,1.12.09,1.87.6,1.79,1.53l-.55,6.59,7.52.62c.88.07,1.31.8,1.23,1.82s-.63,1.67-1.51,1.6l-3.08-.25c-.68,5.3-2.11,10.59-4.61,15.35,2.13,3.32,4.12,6.63,5.64,9.66.21.41.28.76.25,1.1-.05.63-.44,1.14-.96,1.49-.37.26-.82.38-1.21.34-.59-.05-1.15-.39-1.53-1.06-1.08-2.35-2.62-5.13-4.26-7.92-.39.56-.78,1.12-1.17,1.62-2.88,3.84-5.99,7.07-9.38,9.35-.62.39-1.18.64-1.72.6-.44-.04-.86-.27-1.17-.69-.36-.42-.51-.93-.48-1.37.04-.44.27-.86.79-1.21,3.7-2.54,6.84-5.48,9.46-9.15.56-.79,1.12-1.63,1.58-2.43-2.19-3.28-4.79-6.89-7.06-9.73-.31-.37-.43-.77-.4-1.16.04-.49.27-.91.8-1.31.37-.26.87-.42,1.36-.38.44.04.87.22,1.18.59,2,2.53,4.13,5.36,6.1,8.27,1.79-3.83,2.78-8.08,3.23-12.27l-13.33-1.1ZM131.48,23.52c.59.05,1.1.34,1.41.8,1.97,2.92,3.82,6.66,5,9.71.12.3.15.6.13.85-.05.63-.44,1.19-1.16,1.53-.36.17-.71.24-1.05.21-.63-.05-1.19-.44-1.47-1.2-1.05-2.79-2.86-6.38-4.79-9.25-.22-.31-.29-.66-.26-1,.04-.54.38-1.05,1-1.39.41-.21.81-.28,1.2-.24ZM151.25,17.49c.88.07,1.36.85,1.27,1.88s-.68,1.71-1.56,1.64l-4.44-.37-2.09,25.2c-.26,3.17-2.19,4.49-6.54,4.13-1.86-.15-3.65-.45-4.8-.84-.81-.26-1.21-.84-1.14-1.72.02-.2.03-.39.1-.63.32-.96.95-1.35,1.68-1.29.15.01.24.02.39.08,1.05.38,2.31.58,3.63.69,2.29.19,2.91-.15,3.04-1.67l2.01-24.27-11.04-.91c-.93-.08-1.36-.85-1.27-1.83.09-1.07.64-1.77,1.57-1.69l11.04.91.76-9.18c.08-.93.85-1.31,1.97-1.21s1.82.59,1.74,1.52l-.76,9.18,4.44.37Z"/>
      <path class="cls-2" d="M200.22,16.12c1.02.1,1.29.91,1.2,1.88-.09.98-.5,1.72-1.53,1.63l-33.76-3.15c-1.71-.16-2.35.37-2.49,1.88-.56,5.95-1.46,13.59-2.38,18.13-.92,4.54-2.58,10.24-4.68,13.74-.53.89-1.21,1.32-1.99,1.24-.24-.02-.53-.1-.86-.28-.7-.46-1.04-.93-.99-1.57.03-.34.17-.72.4-1.14,1.93-3.31,3.49-7.89,4.58-13.79.73-4.16,1.53-11.67,2.07-17.42.3-3.27,2.21-4.71,5.33-4.42l13.22,1.23.37-3.95c.09-.93.97-1.43,2.09-1.33,1.17.11,1.9.77,1.81,1.69l-.37,3.95,17.95,1.67ZM168.7,30.11s.15.01.2.02c1.06.2,1.69.9,1.59,1.92-.01.15-.02.24-.03.34-1.09,4.87-2.74,10.37-5,14.59-.41.75-1.08,1.08-1.82,1.01-.29-.03-.58-.1-.86-.28-.75-.41-1.14-.99-1.07-1.72.02-.24.1-.53.22-.82,2.23-3.83,3.84-8.99,4.77-13.73.18-.92.97-1.44,1.99-1.34ZM174.36,28.48c.08-.83.91-1.34,2.03-1.24s1.85.76,1.77,1.64l-1.8,19.32c-.09.98.3,1.5.87,1.71.9.38,2.21.55,3.72.69,2.15.2,3.14.1,4.16-.3,1.02-.4,1.22-.92,1.6-2.41.24-.96.61-2.8.78-4.65.1-1.07.84-1.64,1.92-1.54,0,0,.05,0,.1,0,1.12.15,1.68.94,1.59,1.97-.26,2.83-.84,5.83-1.46,7.24-.74,1.65-1.66,2.5-3.13,3-1.07.39-2.9.47-5.68.21-3.61-.34-5.26-.54-6.48-1.19-1.5-.83-2.08-2.01-1.87-4.26l1.88-20.2ZM188.39,27.42c.46.39.61.89.56,1.43-.04.44-.23.86-.56,1.28-.44.5-1,.74-1.54.69-.44-.04-.82-.22-1.18-.55-2.51-2.6-6.32-5.61-8.96-7.33-.55-.4-.81-.81-.76-1.3.03-.34.21-.72.55-1.13.49-.54,1-.74,1.54-.69.34.03.77.22,1.14.45,3.03,1.86,6.55,4.65,9.22,7.16ZM191.21,33.59c.06-.68.61-1.22,1.37-1.5.25-.07.55-.1.79-.07.73.07,1.33.57,1.56,1.18,1.82,4.75,3.23,10.24,3.83,14.87.03.2.01.39,0,.54-.08.88-.63,1.47-1.58,1.67-.25.03-.45.06-.69.03-.83-.08-1.47-.63-1.58-1.57-.5-4.67-1.82-10.06-3.58-14.41-.12-.26-.15-.51-.13-.75Z"/>
      <path class="cls-2" d="M215.19,16.16c.12-1.17.97-1.77,2.24-1.64,1.22.13,2.07.9,1.95,2.07l-.8,7.75,15.94,1.65.8-7.75c.12-1.17.92-1.78,2.19-1.65,1.22.13,2.07.91,1.95,2.07l-.8,7.75,7.46.77c1.32.14,1.77,1.02,1.66,2.09s-.74,1.89-2,1.76l-7.51-.78-.54,5.21c-.61,5.9-2.31,10.4-5,13.57-3.48,4.07-9.21,6.68-15.31,7.08-.25.02-.44,0-.64-.02-1.07-.11-1.65-.71-1.74-1.71-.03-.2-.01-.35,0-.54.1-.97.8-1.54,1.94-1.62,4.86-.33,9.84-2.72,12.53-5.89,2.24-2.62,3.57-6.38,4.16-12.13l.45-4.39-15.94-1.65-1.24,11.99c-.13,1.22-1.12,1.76-2.34,1.63-1.27-.13-1.98-.85-1.86-2.06l1.24-11.99-7.51-.78c-1.27-.13-1.71-1.06-1.6-2.14.11-1.07.73-1.8,2.04-1.66l7.46.77.81-7.8Z"/>
      <path class="cls-2" d="M254.04,41.76c-1.22-.14-1.81-.99-1.66-2.31.14-1.27.93-2.11,2.2-1.97l36.96,4.19c1.27.14,1.84,1.15,1.7,2.41-.15,1.32-.92,2.02-2.14,1.88l-37.05-4.2Z"/>
      <path class="cls-2" d="M306.96,53.76c-.78,6.27.24,6.79,9.82,7.98,5.16.64,10.56.82,15.09.59.2-.02.4,0,.59.02.97.12,1.63.79,1.63,1.98-.01.1-.03.24-.04.34-.14,1.12-.86,1.77-2.06,1.87-4.52.23-10.07-.06-16.63-.88-11.82-1.46-13.64-3.52-12.5-12.71l3.15-25.38c.16-1.31,1.15-1.73,2.32-1.59,1.31.16,2.02.79,1.86,2.11l-1.63,13.18c7.72-.18,16.92-1.9,23.77-4.91.42-.2.87-.24,1.26-.19.73.09,1.31.56,1.67,1.29.2.42.24.87.19,1.26-.09.73-.56,1.36-1.24,1.62-7.51,3.22-17.1,4.89-26.2,5l-1.04,8.41ZM334.71,27.03c.53.07.86.25,1.2.69,1.32,1.69,2.78,4.25,3.51,5.96.11.31.26.67.18,1.31-.09.73-.85,1.28-1.77,1.16-.58-.07-.94-.36-1.16-.98-.8-1.93-2.01-4.1-3.18-5.78-.25-.38-.4-.79-.34-1.23.08-.63.79-1.23,1.57-1.14ZM340.81,25.22c.54.07.85.3,1.24.75,1.11,1.37,2.65,4.13,3.33,5.79.11.31.21.72.14,1.25-.07.58-.75,1.29-1.68,1.17-.58-.07-.89-.36-1.17-.94-.84-1.98-1.87-4.03-3.01-5.61-.38-.49-.5-.75-.43-1.34.08-.63.89-1.17,1.57-1.09Z"/>
      <path class="cls-2" d="M352.47,37.66c-1.17-.16-1.68-1.07-1.51-2.38.16-1.17.94-1.85,2.06-1.7l24.75,3.11c2.09.28,3.35,1.15,4.06,2.53.3.73.43,1.54.3,2.51-.11.83-.44,1.77-.92,2.74-2.19,4.1-5.47,7.86-9.43,11.58,4.86,4.96,8.42,8.66,11.86,13.92.36.59.53,1.21.45,1.79s-.39,1.08-.84,1.47c-.5.43-1.17.58-1.8.5s-1.23-.41-1.64-1.01c-3.05-4.86-6.34-9.02-11.16-13.98-6.19,5.19-14.46,8.87-22.36,10.66-.41.09-.81.14-1.2.08-.83-.11-1.45-.59-1.63-1.46-.06-.26-.07-.55-.03-.85.12-.87.77-1.67,1.74-1.89,6.18-1.44,12.82-4.09,18.66-8.15,5.68-3.98,10.48-9.11,13.12-14.29.2-.42.35-.74.39-1.04.1-.73-.39-1.14-1.6-1.31l-23.25-2.86Z"/>
      <path class="cls-2" d="M392.06,58.58c-1.02-.15-1.44-1.35-1.29-2.36.15-1.07.88-2,1.9-1.86l40.79,5.86c1.02.15,1.45,1.25,1.3,2.32-.15,1.02-.89,2.05-1.91,1.9l-40.79-5.87Z"/>
      <path class="cls-2" d="M447.1,79.1c-2.71-.42-3.72-1.57-3.36-3.94l1.62-10.51c.37-2.42,1.65-3.27,4.5-2.83l23.59,3.64c2.91.45,3.91,1.64,3.54,4.07l-1.62,10.51c-.37,2.37-1.68,3.16-4.39,2.74l-5.91-.91-.46,2.96c-.17,1.11.07,1.5,2.67,2,.48.12,1.3.25,2.17.38,1.16.18,2.43.33,3.06.42,3.02.37,3.65.12,4.18-.74.44-.63.86-1.7,1.16-2.7.22-.81.78-1.17,1.65-1.03.15.02.29.04.43.12,1.09.32,1.49.97,1.37,1.75-.01.1-.02.15-.04.24-.41,1.67-1.15,3.29-1.94,4.21-1.15,1.36-2.52,1.84-6.47,1.43-.83-.08-2.24-.3-3.59-.5-1.36-.21-2.71-.42-3.48-.59-4.47-.89-5.32-1.81-4.92-4.43l.63-4.07-6-.93c-3.03,5.19-9.2,6.91-17.67,5.9-.92-.14-1.66-.8-1.6-1.83.02-.1.02-.15.04-.24.15-.97.83-1.51,1.8-1.36,6.65.93,11.09.12,13.52-3.07l-4.46-.69ZM462.32,59.53c.63.1.89.68.77,1.41-.1.68-.58,1.2-1.31,1.09l-16.18-2.5c-2.86-.44-3.75-1.42-3.37-3.84l1.57-10.17c.37-2.42,1.63-3.17,4.29-2.76l16.32,2.52c.68.1.99.65.87,1.42-.12.77-.59,1.25-1.27,1.14l-7.02-1.08-.36,2.33,3.92.61c1.99.31,2.81,1.08,2.51,3.02l-.28,1.84c-.29,1.89-1.32,2.42-3.3,2.12l-3.92-.61-.37,2.37,7.12,1.1ZM445.54,56.1c-.13.82.26.88,1.13,1.02l5.42.84.37-2.37-6.68-1.03-.24,1.55ZM446.13,52.27l12.5,1.93c.68.1.99,0,1.1-.67l.12-.77c.1-.68-.16-.87-.84-.97l-12.5-1.93-.37,2.42ZM453.54,48.6l.36-2.33-5.42-.84c-.87-.13-1.3.05-1.43.92l-.19,1.21,6.68,1.03ZM447.32,73.82l-.25,1.65c-.13.82.28,1.08,1.15,1.22l22.38,3.45c.87.13,1.39.02,1.51-.81l.25-1.65-25.04-3.87ZM473.1,72.9l-25.04-3.87-.37,2.42,25.04,3.87.37-2.42ZM473.67,69.17c.13-.82-.32-1.14-1.19-1.27l-22.38-3.45c-.87-.13-1.34.04-1.47.86l-.21,1.36,25.04,3.87.21-1.36ZM470.17,52.36c-1.08,1.22-2.24,2.33-3.49,3.33-.56.41-1.08.58-1.57.5-.34-.05-.66-.25-.96-.54-.34-.35-.52-.82-.44-1.31.06-.39.27-.8.71-1.08,2.31-1.78,4.59-4.35,6.28-7.26.34-.59.87-.81,1.5-.71.19.03.43.12.66.2.75.31,1.1.91,1,1.54-.04.24-.12.48-.31.7-.39.63-.78,1.22-1.23,1.84l12.35,1.91c.82.13,1.13.72.98,1.69-.15.97-.63,1.49-1.45,1.36l-14.04-2.17ZM467.49,60.08c-.77-.12-1.06-.81-.92-1.73.13-.82.61-1.39,1.34-1.28l13.75,2.12c.73.11,1.02.75.89,1.62-.14.92-.63,1.49-1.35,1.38l-13.71-2.12Z"/>
      <path class="cls-2" d="M537.38,74.24c-.56-.49-.71-1.07-.61-1.65.06-.34.22-.71.42-1.02.4-.58,1.13-1.05,1.85-.92.29.05.61.21.87.45l15.89,13.64c1.07.98,1.58,1.77,1.35,3.12-.23,1.3-.97,1.87-2.25,2.35l-19.62,7.65c-.32.14-.63.19-.92.14-.77-.13-1.26-.76-1.48-1.5-.09-.36-.12-.77-.06-1.1.1-.58.43-1.07,1.13-1.35l18.57-7.03-15.15-12.76Z"/>
      <path class="cls-2" d="M563.78,78.82c-.56-.5-.7-1.07-.6-1.65.06-.34.23-.71.43-1.02.4-.58,1.13-1.04,1.86-.91.29.05.61.21.86.45l15.81,13.73c1.07.99,1.57,1.77,1.33,3.12-.23,1.3-.98,1.87-2.26,2.33l-19.66,7.54c-.32.14-.63.19-.92.13-.77-.14-1.26-.77-1.47-1.51-.08-.36-.11-.77-.05-1.1.1-.58.44-1.07,1.14-1.34l18.61-6.93-15.07-12.85Z"/>
    </g>
  </g>
</svg>