<?xml version="1.0" encoding="UTF-8"?>
<svg id="_レイヤー_2" data-name="レイヤー 2" xmlns="http://www.w3.org/2000/svg" viewBox="0 0 525.27 56.22">
  <defs>
    <style>
      .cls-1, .cls-2 {
        fill: #fff;
      }

      .cls-2 {
        stroke: #ff008c;
        stroke-linecap: round;
        stroke-linejoin: round;
        stroke-width: 7px;
      }
    </style>
  </defs>
  <g id="_レイヤー_1-2" data-name="レイヤー 1">
    <g>
      <path class="cls-2" d="M25.69,47.15c.6.37.87.9.89,1.49.01.34-.07.74-.2,1.09-.32.7-.88,1.26-1.62,1.29-.29.01-.64-.07-.94-.26l-18.4-10.17c-1.25-.64-1.87-1.3-1.92-2.62-.05-1.37.51-2.08,1.75-2.91l17.55-11.43c.29-.21.62-.32.87-.33.78-.03,1.39.53,1.71,1.16.21.34.32.72.34,1.12.02.59-.2,1.14-.82,1.5l-16.7,10.66,17.48,9.42Z"/>
      <path class="cls-2" d="M52.35,46.2c.6.37.86.9.89,1.49.01.34-.07.74-.21,1.09-.32.7-.89,1.26-1.62,1.28-.29.01-.64-.08-.94-.26l-18.35-10.24c-1.25-.64-1.86-1.31-1.91-2.63-.05-1.37.52-2.08,1.76-2.91l17.6-11.35c.29-.21.63-.32.87-.33.78-.03,1.39.54,1.71,1.17.21.33.32.72.33,1.12.02.59-.21,1.13-.83,1.5l-16.74,10.58,17.44,9.49Z"/>
      <path class="cls-2" d="M74,19.02c-.93.02-1.44-.65-1.46-1.63-.03-1.03.44-1.78,1.38-1.8l8.72-.23-.17-6.61c-.02-.93.75-1.39,1.83-1.42,1.13-.03,1.92.39,1.95,1.32l.17,6.61,7.54-.2c.88-.02,1.39.65,1.42,1.68.03,1.03-.45,1.73-1.33,1.75l-3.09.08c-.11,5.34-.95,10.76-2.93,15.76,2.48,3.07,4.81,6.15,6.65,8.99.26.39.36.73.37,1.07.02.64-.31,1.18-.79,1.59-.33.3-.77.46-1.16.47-.59.02-1.18-.26-1.64-.89-1.33-2.22-3.16-4.82-5.09-7.42-.33.6-.66,1.19-.98,1.74-2.44,4.13-5.19,7.68-8.31,10.31-.58.46-1.11.76-1.65.78-.44.01-.89-.17-1.24-.56-.4-.38-.61-.87-.62-1.31-.01-.44.17-.89.65-1.29,3.4-2.93,6.21-6.19,8.41-10.12.47-.85.94-1.74,1.31-2.58-2.53-3.02-5.51-6.33-8.07-8.91-.35-.33-.51-.72-.52-1.11-.01-.49.17-.94.65-1.39.34-.3.82-.51,1.31-.52.44-.01.89.12,1.24.46,2.27,2.29,4.68,4.88,6.96,7.56,1.37-4.01,1.89-8.33,1.88-12.55l-13.37.35ZM97.5,25.52c.59-.02,1.13.22,1.49.65,2.28,2.69,4.52,6.21,6.02,9.11.15.29.21.58.22.83.02.64-.31,1.23-.99,1.64-.34.2-.68.31-1.02.32-.64.02-1.23-.31-1.6-1.04-1.34-2.66-3.54-6.04-5.76-8.67-.25-.29-.36-.63-.37-.97-.01-.54.27-1.08.84-1.49.39-.25.77-.36,1.17-.37ZM116.5,17.38c.88-.02,1.44.7,1.47,1.73.03,1.03-.49,1.78-1.38,1.8l-4.46.12.65,25.27c.08,3.18-1.69,4.7-6.05,4.81-1.86.05-3.68-.05-4.86-.32-.84-.17-1.29-.7-1.32-1.58,0-.2-.01-.39.03-.64.22-.99.8-1.44,1.53-1.46.15,0,.25,0,.39.04,1.08.27,2.36.33,3.68.3,2.3-.06,2.88-.47,2.84-1.98l-.63-24.34-11.07.29c-.93.02-1.44-.7-1.46-1.68-.03-1.08.44-1.82,1.37-1.85l11.07-.29-.24-9.21c-.02-.93.7-1.39,1.83-1.42s1.87.39,1.9,1.32l.24,9.21,4.46-.12Z"/>
      <path class="cls-2" d="M164.98,10.61c1.03-.02,1.39.76,1.4,1.74s-.31,1.77-1.34,1.79l-33.91.6c-1.71.03-2.29.63-2.27,2.15.11,5.98.05,13.67-.36,18.29s-1.43,10.46-3.13,14.17c-.42.94-1.05,1.44-1.84,1.45-.25,0-.54-.04-.89-.18-.74-.38-1.14-.81-1.15-1.45,0-.34.08-.74.27-1.18,1.56-3.51,2.6-8.23,3.03-14.22.27-4.22.23-11.77.13-17.55-.06-3.28,1.68-4.93,4.81-4.99l13.28-.24-.07-3.97c-.02-.93.81-1.53,1.93-1.55,1.18-.02,1.97.55,1.99,1.48l.07,3.97,18.03-.32ZM135.2,27.99s.15,0,.2,0c1.08.08,1.78.7,1.8,1.73,0,.15,0,.25,0,.34-.55,4.96-1.58,10.61-3.36,15.06-.33.79-.96,1.19-1.69,1.21-.29,0-.59-.04-.89-.18-.79-.33-1.24-.86-1.25-1.6,0-.25.04-.54.13-.83,1.79-4.05,2.82-9.36,3.23-14.17.08-.93.81-1.53,1.83-1.55ZM140.65,25.74c-.01-.83.76-1.43,1.89-1.45,1.13-.02,1.92.55,1.94,1.44l.34,19.4c.02.98.47,1.46,1.06,1.6.94.28,2.26.3,3.78.28,2.16-.04,3.13-.25,4.1-.76.97-.51,1.11-1.05,1.33-2.57.13-.98.29-2.85.26-4.71-.02-1.08.66-1.73,1.73-1.75,0,0,.05,0,.1,0,1.13.03,1.78.75,1.8,1.78.05,2.84-.19,5.88-.65,7.36-.56,1.73-1.37,2.67-2.78,3.33-1.02.51-2.83.79-5.62.83-3.63.06-5.29.04-6.58-.47-1.58-.66-2.29-1.77-2.33-4.03l-.36-20.29ZM154.47,23.14c.5.33.7.82.71,1.36,0,.44-.13.88-.42,1.33-.38.55-.92.85-1.46.86-.44,0-.84-.13-1.23-.42-2.79-2.3-6.9-4.88-9.72-6.3-.59-.33-.89-.72-.9-1.21,0-.34.13-.74.42-1.18.43-.6.92-.85,1.46-.86.34,0,.79.13,1.18.32,3.21,1.51,7.03,3.89,9.96,6.1ZM157.96,28.96c-.01-.69.47-1.28,1.2-1.64.24-.1.54-.16.78-.16.73-.01,1.38.42,1.68,1,2.33,4.52,4.34,9.82,5.45,14.36.05.2.06.39.06.54.02.88-.46,1.53-1.39,1.84-.24.05-.44.11-.68.11-.83.01-1.53-.46-1.74-1.39-1.01-4.59-2.92-9.8-5.15-13.93-.15-.24-.2-.49-.21-.73Z"/>
      <path class="cls-2" d="M179.79,8.96c-.01-1.18.77-1.87,2.04-1.88,1.23-.01,2.16.66,2.17,1.84l.08,7.79,16.02-.16-.08-7.79c-.01-1.18.72-1.87,1.99-1.88,1.23-.01,2.16.66,2.17,1.84l.08,7.79,7.5-.08c1.32-.01,1.87.81,1.88,1.89s-.52,1.96-1.79,1.98l-7.55.08.05,5.24c.06,5.93-1.12,10.59-3.44,14.05-2.99,4.44-8.4,7.68-14.42,8.77-.24.05-.44.05-.64.05-1.08.01-1.72-.52-1.93-1.5-.05-.2-.05-.34-.05-.54,0-.98.62-1.62,1.75-1.83,4.79-.88,9.47-3.82,11.79-7.27,1.93-2.86,2.82-6.74,2.77-12.52l-.04-4.41-16.02.16.12,12.05c.01,1.22-.91,1.87-2.14,1.88-1.27.01-2.06-.62-2.08-1.84l-.12-12.05-7.55.08c-1.27.01-1.82-.86-1.83-1.94s.52-1.87,1.84-1.88l7.5-.07-.08-7.84Z"/>
      <path class="cls-2" d="M221.26,30c-1.23,0-1.91-.78-1.92-2.1,0-1.27.68-2.21,1.96-2.21l37.19-.08c1.27,0,1.96.93,1.96,2.2,0,1.32-.68,2.11-1.91,2.11l-37.29.08Z"/>
      <path class="cls-2" d="M275.19,35.81c-.04,6.32,1.04,6.72,10.69,6.78,5.19.03,10.59-.43,15.05-1.18.2-.05.39-.05.59-.04.98,0,1.71.6,1.85,1.77,0,.1,0,.25,0,.34,0,1.13-.65,1.86-1.83,2.1-4.46.76-10,1.12-16.62,1.08-11.91-.07-13.95-1.9-13.9-11.16l.15-25.58c0-1.32.94-1.86,2.12-1.85,1.32,0,2.1.55,2.1,1.87l-.08,13.28c7.65-1.08,16.58-3.87,23.02-7.65.39-.24.83-.34,1.23-.34.73,0,1.37.4,1.81,1.09.24.39.34.83.33,1.23,0,.74-.4,1.42-1.04,1.76-7.08,4.07-16.41,6.86-25.43,8.03l-.05,8.48ZM299.62,6.01c.54,0,.88.15,1.27.55,1.51,1.53,3.26,3.89,4.18,5.51.15.29.34.64.34,1.28,0,.73-.69,1.37-1.62,1.36-.59,0-.98-.25-1.27-.84-1.02-1.82-2.48-3.84-3.84-5.36-.29-.34-.49-.74-.48-1.18,0-.64.64-1.32,1.43-1.31ZM305.47,3.5c.54,0,.88.2,1.32.6,1.27,1.23,3.11,3.79,3.99,5.36.15.29.29.69.29,1.23,0,.59-.6,1.37-1.53,1.36-.59,0-.93-.25-1.27-.79-1.07-1.87-2.33-3.79-3.64-5.22-.44-.44-.58-.69-.58-1.28,0-.64.74-1.27,1.43-1.27Z"/>
      <path class="cls-2" d="M318.41,14.5c-1.18-.02-1.8-.86-1.78-2.18.02-1.18.71-1.95,1.84-1.94l24.94.09c2.11.03,3.47.73,4.33,2.02.38.69.62,1.48.6,2.46-.01.83-.22,1.81-.58,2.83-1.68,4.34-4.48,8.47-7.96,12.63,5.43,4.34,9.41,7.57,13.46,12.38.43.54.67,1.14.66,1.72,0,.59-.26,1.12-.66,1.56-.45.48-1.09.72-1.72.71-.64,0-1.27-.26-1.75-.81-3.62-4.46-7.39-8.18-12.77-12.52-5.52,5.9-13.28,10.55-20.91,13.29-.39.14-.79.23-1.18.23-.83-.01-1.51-.41-1.8-1.25-.09-.25-.14-.54-.14-.83.01-.88.56-1.76,1.5-2.09,5.96-2.17,12.23-5.62,17.54-10.35,5.16-4.64,9.3-10.31,11.29-15.78.15-.44.26-.78.26-1.07,0-.74-.52-1.09-1.75-1.1l-23.42-.02Z"/>
      <path class="cls-2" d="M360.26,30.52c-1.03-.02-1.59-1.16-1.57-2.19.02-1.08.63-2.09,1.66-2.07l41.21.87c1.03.02,1.59,1.06,1.57,2.14-.02,1.03-.63,2.14-1.66,2.12l-41.21-.87Z"/>
      <path class="cls-2" d="M417.39,44.18c-2.74-.08-3.89-1.09-3.82-3.5l.31-10.63c.07-2.45,1.23-3.44,4.12-3.36l23.85.7c2.94.09,4.08,1.15,4.01,3.6l-.31,10.63c-.07,2.4-1.27,3.35-4.02,3.27l-5.98-.18-.09,2.99c-.03,1.13.25,1.48,2.89,1.65.49.06,1.32.09,2.2.11,1.18.04,2.45.02,3.09.04,3.04,0,3.64-.33,4.06-1.25.36-.68.64-1.79.82-2.82.12-.83.62-1.26,1.51-1.23.15,0,.29,0,.44.06,1.12.18,1.6.78,1.57,1.57,0,.1,0,.15,0,.25-.2,1.71-.74,3.41-1.4,4.42-.97,1.49-2.27,2.14-6.24,2.22-.83.02-2.25-.02-3.63-.06-1.37-.04-2.74-.08-3.52-.15-4.55-.33-5.51-1.14-5.43-3.79l.12-4.11-6.07-.18c-2.37,5.52-8.27,7.99-16.81,8.04-.93-.03-1.75-.59-1.82-1.62,0-.1,0-.15,0-.25.03-.98.63-1.6,1.61-1.57,6.71.1,11.02-1.25,13.03-4.72l-4.51-.13ZM430.07,22.88c.64.02.96.57.94,1.3-.02.69-.43,1.26-1.16,1.24l-16.36-.48c-2.89-.08-3.89-.95-3.82-3.4l.3-10.29c.07-2.45,1.22-3.35,3.92-3.27l16.51.48c.69.02,1.06.52,1.04,1.3-.02.78-.43,1.31-1.12,1.29l-7.1-.21-.07,2.35,3.97.12c2.01.06,2.92.72,2.86,2.68l-.05,1.86c-.06,1.91-1.01,2.57-3.01,2.51l-3.97-.12-.07,2.4,7.2.21ZM413,21.55c-.02.83.37.84,1.25.87l5.49.16.07-2.4-6.76-.2-.05,1.57ZM413.12,17.68l12.64.37c.69.02.98-.12,1-.8l.02-.78c.02-.69-.27-.84-.96-.86l-12.64-.37-.07,2.45ZM420.01,13.13l.07-2.35-5.49-.16c-.88-.03-1.28.21-1.31,1.09l-.04,1.22,6.76.2ZM416.95,38.92l-.05,1.67c-.02.83.41,1.04,1.29,1.07l22.63.66c.88.03,1.38-.16,1.4-.99l.05-1.67-25.32-.74ZM442.42,34.81l-25.32-.74-.07,2.45,25.32.74.07-2.45ZM442.53,31.04c.02-.83-.46-1.09-1.34-1.12l-22.63-.66c-.88-.03-1.33.21-1.35,1.04l-.04,1.37,25.32.74.04-1.37ZM436.98,14.8c-.92,1.35-1.94,2.59-3.05,3.73-.5.48-1,.71-1.49.69-.34,0-.68-.17-1.02-.42-.38-.3-.62-.75-.6-1.24.01-.39.17-.83.57-1.16,2.07-2.05,4.02-4.88,5.33-7.98.26-.63.76-.91,1.4-.89.2,0,.44.06.68.12.78.22,1.2.77,1.18,1.41,0,.25-.06.49-.22.73-.31.68-.63,1.31-.99,1.98l12.49.37c.83.02,1.21.58,1.18,1.55s-.44,1.56-1.27,1.53l-14.2-.42ZM435.27,22.79c-.78-.02-1.16-.67-1.13-1.6.02-.83.44-1.46,1.17-1.44l13.91.41c.74.02,1.11.62,1.08,1.5-.03.93-.44,1.56-1.17,1.53l-13.86-.41Z"/>
      <path class="cls-2" d="M473.64,26.81c-.62-.42-.85-.96-.82-1.55.01-.34.13-.73.29-1.07.32-.63.98-1.19,1.71-1.16.29.01.63.12.92.33l17.56,11.41c1.19.83,1.8,1.54,1.75,2.91-.05,1.32-.71,1.98-1.92,2.62l-18.44,10.18c-.3.18-.6.27-.89.26-.78-.03-1.35-.59-1.67-1.29-.13-.35-.22-.74-.2-1.09.02-.59.29-1.12.94-1.48l17.48-9.43-16.71-10.64Z"/>
      <path class="cls-2" d="M500.42,27.84c-.62-.42-.84-.97-.82-1.55.01-.34.13-.73.29-1.07.32-.62.98-1.18,1.72-1.15.29.01.63.12.92.33l17.51,11.49c1.19.83,1.8,1.55,1.74,2.92-.06,1.32-.72,1.98-1.93,2.62l-18.48,10.1c-.3.18-.6.27-.89.26-.78-.03-1.35-.6-1.66-1.3-.13-.35-.21-.74-.2-1.09.03-.59.29-1.12.95-1.48l17.51-9.35-16.66-10.72Z"/>
    </g>
    <g>
      <path class="cls-1" d="M25.69,47.15c.6.37.87.9.89,1.49.01.34-.07.74-.2,1.09-.32.7-.88,1.26-1.62,1.29-.29.01-.64-.07-.94-.26l-18.4-10.17c-1.25-.64-1.87-1.3-1.92-2.62-.05-1.37.51-2.08,1.75-2.91l17.55-11.43c.29-.21.62-.32.87-.33.78-.03,1.39.53,1.71,1.16.21.34.32.72.34,1.12.02.59-.2,1.14-.82,1.5l-16.7,10.66,17.48,9.42Z"/>
      <path class="cls-1" d="M52.35,46.2c.6.37.86.9.89,1.49.01.34-.07.74-.21,1.09-.32.7-.89,1.26-1.62,1.28-.29.01-.64-.08-.94-.26l-18.35-10.24c-1.25-.64-1.86-1.31-1.91-2.63-.05-1.37.52-2.08,1.76-2.91l17.6-11.35c.29-.21.63-.32.87-.33.78-.03,1.39.54,1.71,1.17.21.33.32.72.33,1.12.02.59-.21,1.13-.83,1.5l-16.74,10.58,17.44,9.49Z"/>
      <path class="cls-1" d="M74,19.02c-.93.02-1.44-.65-1.46-1.63-.03-1.03.44-1.78,1.38-1.8l8.72-.23-.17-6.61c-.02-.93.75-1.39,1.83-1.42,1.13-.03,1.92.39,1.95,1.32l.17,6.61,7.54-.2c.88-.02,1.39.65,1.42,1.68.03,1.03-.45,1.73-1.33,1.75l-3.09.08c-.11,5.34-.95,10.76-2.93,15.76,2.48,3.07,4.81,6.15,6.65,8.99.26.39.36.73.37,1.07.02.64-.31,1.18-.79,1.59-.33.3-.77.46-1.16.47-.59.02-1.18-.26-1.64-.89-1.33-2.22-3.16-4.82-5.09-7.42-.33.6-.66,1.19-.98,1.74-2.44,4.13-5.19,7.68-8.31,10.31-.58.46-1.11.76-1.65.78-.44.01-.89-.17-1.24-.56-.4-.38-.61-.87-.62-1.31-.01-.44.17-.89.65-1.29,3.4-2.93,6.21-6.19,8.41-10.12.47-.85.94-1.74,1.31-2.58-2.53-3.02-5.51-6.33-8.07-8.91-.35-.33-.51-.72-.52-1.11-.01-.49.17-.94.65-1.39.34-.3.82-.51,1.31-.52.44-.01.89.12,1.24.46,2.27,2.29,4.68,4.88,6.96,7.56,1.37-4.01,1.89-8.33,1.88-12.55l-13.37.35ZM97.5,25.52c.59-.02,1.13.22,1.49.65,2.28,2.69,4.52,6.21,6.02,9.11.15.29.21.58.22.83.02.64-.31,1.23-.99,1.64-.34.2-.68.31-1.02.32-.64.02-1.23-.31-1.6-1.04-1.34-2.66-3.54-6.04-5.76-8.67-.25-.29-.36-.63-.37-.97-.01-.54.27-1.08.84-1.49.39-.25.77-.36,1.17-.37ZM116.5,17.38c.88-.02,1.44.7,1.47,1.73.03,1.03-.49,1.78-1.38,1.8l-4.46.12.65,25.27c.08,3.18-1.69,4.7-6.05,4.81-1.86.05-3.68-.05-4.86-.32-.84-.17-1.29-.7-1.32-1.58,0-.2-.01-.39.03-.64.22-.99.8-1.44,1.53-1.46.15,0,.25,0,.39.04,1.08.27,2.36.33,3.68.3,2.3-.06,2.88-.47,2.84-1.98l-.63-24.34-11.07.29c-.93.02-1.44-.7-1.46-1.68-.03-1.08.44-1.82,1.37-1.85l11.07-.29-.24-9.21c-.02-.93.7-1.39,1.83-1.42s1.87.39,1.9,1.32l.24,9.21,4.46-.12Z"/>
      <path class="cls-1" d="M164.98,10.61c1.03-.02,1.39.76,1.4,1.74s-.31,1.77-1.34,1.79l-33.91.6c-1.71.03-2.29.63-2.27,2.15.11,5.98.05,13.67-.36,18.29s-1.43,10.46-3.13,14.17c-.42.94-1.05,1.44-1.84,1.45-.25,0-.54-.04-.89-.18-.74-.38-1.14-.81-1.15-1.45,0-.34.08-.74.27-1.18,1.56-3.51,2.6-8.23,3.03-14.22.27-4.22.23-11.77.13-17.55-.06-3.28,1.68-4.93,4.81-4.99l13.28-.24-.07-3.97c-.02-.93.81-1.53,1.93-1.55,1.18-.02,1.97.55,1.99,1.48l.07,3.97,18.03-.32ZM135.2,27.99s.15,0,.2,0c1.08.08,1.78.7,1.8,1.73,0,.15,0,.25,0,.34-.55,4.96-1.58,10.61-3.36,15.06-.33.79-.96,1.19-1.69,1.21-.29,0-.59-.04-.89-.18-.79-.33-1.24-.86-1.25-1.6,0-.25.04-.54.13-.83,1.79-4.05,2.82-9.36,3.23-14.17.08-.93.81-1.53,1.83-1.55ZM140.65,25.74c-.01-.83.76-1.43,1.89-1.45,1.13-.02,1.92.55,1.94,1.44l.34,19.4c.02.98.47,1.46,1.06,1.6.94.28,2.26.3,3.78.28,2.16-.04,3.13-.25,4.1-.76.97-.51,1.11-1.05,1.33-2.57.13-.98.29-2.85.26-4.71-.02-1.08.66-1.73,1.73-1.75,0,0,.05,0,.1,0,1.13.03,1.78.75,1.8,1.78.05,2.84-.19,5.88-.65,7.36-.56,1.73-1.37,2.67-2.78,3.33-1.02.51-2.83.79-5.62.83-3.63.06-5.29.04-6.58-.47-1.58-.66-2.29-1.77-2.33-4.03l-.36-20.29ZM154.47,23.14c.5.33.7.82.71,1.36,0,.44-.13.88-.42,1.33-.38.55-.92.85-1.46.86-.44,0-.84-.13-1.23-.42-2.79-2.3-6.9-4.88-9.72-6.3-.59-.33-.89-.72-.9-1.21,0-.34.13-.74.42-1.18.43-.6.92-.85,1.46-.86.34,0,.79.13,1.18.32,3.21,1.51,7.03,3.89,9.96,6.1ZM157.96,28.96c-.01-.69.47-1.28,1.2-1.64.24-.1.54-.16.78-.16.73-.01,1.38.42,1.68,1,2.33,4.52,4.34,9.82,5.45,14.36.05.2.06.39.06.54.02.88-.46,1.53-1.39,1.84-.24.05-.44.11-.68.11-.83.01-1.53-.46-1.74-1.39-1.01-4.59-2.92-9.8-5.15-13.93-.15-.24-.2-.49-.21-.73Z"/>
      <path class="cls-1" d="M179.79,8.96c-.01-1.18.77-1.87,2.04-1.88,1.23-.01,2.16.66,2.17,1.84l.08,7.79,16.02-.16-.08-7.79c-.01-1.18.72-1.87,1.99-1.88,1.23-.01,2.16.66,2.17,1.84l.08,7.79,7.5-.08c1.32-.01,1.87.81,1.88,1.89s-.52,1.96-1.79,1.98l-7.55.08.05,5.24c.06,5.93-1.12,10.59-3.44,14.05-2.99,4.44-8.4,7.68-14.42,8.77-.24.05-.44.05-.64.05-1.08.01-1.72-.52-1.93-1.5-.05-.2-.05-.34-.05-.54,0-.98.62-1.62,1.75-1.83,4.79-.88,9.47-3.82,11.79-7.27,1.93-2.86,2.82-6.74,2.77-12.52l-.04-4.41-16.02.16.12,12.05c.01,1.22-.91,1.87-2.14,1.88-1.27.01-2.06-.62-2.08-1.84l-.12-12.05-7.55.08c-1.27.01-1.82-.86-1.83-1.94s.52-1.87,1.84-1.88l7.5-.07-.08-7.84Z"/>
      <path class="cls-1" d="M221.26,30c-1.23,0-1.91-.78-1.92-2.1,0-1.27.68-2.21,1.96-2.21l37.19-.08c1.27,0,1.96.93,1.96,2.2,0,1.32-.68,2.11-1.91,2.11l-37.29.08Z"/>
      <path class="cls-1" d="M275.19,35.81c-.04,6.32,1.04,6.72,10.69,6.78,5.19.03,10.59-.43,15.05-1.18.2-.05.39-.05.59-.04.98,0,1.71.6,1.85,1.77,0,.1,0,.25,0,.34,0,1.13-.65,1.86-1.83,2.1-4.46.76-10,1.12-16.62,1.08-11.91-.07-13.95-1.9-13.9-11.16l.15-25.58c0-1.32.94-1.86,2.12-1.85,1.32,0,2.1.55,2.1,1.87l-.08,13.28c7.65-1.08,16.58-3.87,23.02-7.65.39-.24.83-.34,1.23-.34.73,0,1.37.4,1.81,1.09.24.39.34.83.33,1.23,0,.74-.4,1.42-1.04,1.76-7.08,4.07-16.41,6.86-25.43,8.03l-.05,8.48ZM299.62,6.01c.54,0,.88.15,1.27.55,1.51,1.53,3.26,3.89,4.18,5.51.15.29.34.64.34,1.28,0,.73-.69,1.37-1.62,1.36-.59,0-.98-.25-1.27-.84-1.02-1.82-2.48-3.84-3.84-5.36-.29-.34-.49-.74-.48-1.18,0-.64.64-1.32,1.43-1.31ZM305.47,3.5c.54,0,.88.2,1.32.6,1.27,1.23,3.11,3.79,3.99,5.36.15.29.29.69.29,1.23,0,.59-.6,1.37-1.53,1.36-.59,0-.93-.25-1.27-.79-1.07-1.87-2.33-3.79-3.64-5.22-.44-.44-.58-.69-.58-1.28,0-.64.74-1.27,1.43-1.27Z"/>
      <path class="cls-1" d="M318.41,14.5c-1.18-.02-1.8-.86-1.78-2.18.02-1.18.71-1.95,1.84-1.94l24.94.09c2.11.03,3.47.73,4.33,2.02.38.69.62,1.48.6,2.46-.01.83-.22,1.81-.58,2.83-1.68,4.34-4.48,8.47-7.96,12.63,5.43,4.34,9.41,7.57,13.46,12.38.43.54.67,1.14.66,1.72,0,.59-.26,1.12-.66,1.56-.45.48-1.09.72-1.72.71-.64,0-1.27-.26-1.75-.81-3.62-4.46-7.39-8.18-12.77-12.52-5.52,5.9-13.28,10.55-20.91,13.29-.39.14-.79.23-1.18.23-.83-.01-1.51-.41-1.8-1.25-.09-.25-.14-.54-.14-.83.01-.88.56-1.76,1.5-2.09,5.96-2.17,12.23-5.62,17.54-10.35,5.16-4.64,9.3-10.31,11.29-15.78.15-.44.26-.78.26-1.07,0-.74-.52-1.09-1.75-1.1l-23.42-.02Z"/>
      <path class="cls-1" d="M360.26,30.52c-1.03-.02-1.59-1.16-1.57-2.19.02-1.08.63-2.09,1.66-2.07l41.21.87c1.03.02,1.59,1.06,1.57,2.14-.02,1.03-.63,2.14-1.66,2.12l-41.21-.87Z"/>
      <path class="cls-1" d="M417.39,44.18c-2.74-.08-3.89-1.09-3.82-3.5l.31-10.63c.07-2.45,1.23-3.44,4.12-3.36l23.85.7c2.94.09,4.08,1.15,4.01,3.6l-.31,10.63c-.07,2.4-1.27,3.35-4.02,3.27l-5.98-.18-.09,2.99c-.03,1.13.25,1.48,2.89,1.65.49.06,1.32.09,2.2.11,1.18.04,2.45.02,3.09.04,3.04,0,3.64-.33,4.06-1.25.36-.68.64-1.79.82-2.82.12-.83.62-1.26,1.51-1.23.15,0,.29,0,.44.06,1.12.18,1.6.78,1.57,1.57,0,.1,0,.15,0,.25-.2,1.71-.74,3.41-1.4,4.42-.97,1.49-2.27,2.14-6.24,2.22-.83.02-2.25-.02-3.63-.06-1.37-.04-2.74-.08-3.52-.15-4.55-.33-5.51-1.14-5.43-3.79l.12-4.11-6.07-.18c-2.37,5.52-8.27,7.99-16.81,8.04-.93-.03-1.75-.59-1.82-1.62,0-.1,0-.15,0-.25.03-.98.63-1.6,1.61-1.57,6.71.1,11.02-1.25,13.03-4.72l-4.51-.13ZM430.07,22.88c.64.02.96.57.94,1.3-.02.69-.43,1.26-1.16,1.24l-16.36-.48c-2.89-.08-3.89-.95-3.82-3.4l.3-10.29c.07-2.45,1.22-3.35,3.92-3.27l16.51.48c.69.02,1.06.52,1.04,1.3-.02.78-.43,1.31-1.12,1.29l-7.1-.21-.07,2.35,3.97.12c2.01.06,2.92.72,2.86,2.68l-.05,1.86c-.06,1.91-1.01,2.57-3.01,2.51l-3.97-.12-.07,2.4,7.2.21ZM413,21.55c-.02.83.37.84,1.25.87l5.49.16.07-2.4-6.76-.2-.05,1.57ZM413.12,17.68l12.64.37c.69.02.98-.12,1-.8l.02-.78c.02-.69-.27-.84-.96-.86l-12.64-.37-.07,2.45ZM420.01,13.13l.07-2.35-5.49-.16c-.88-.03-1.28.21-1.31,1.09l-.04,1.22,6.76.2ZM416.95,38.92l-.05,1.67c-.02.83.41,1.04,1.29,1.07l22.63.66c.88.03,1.38-.16,1.4-.99l.05-1.67-25.32-.74ZM442.42,34.81l-25.32-.74-.07,2.45,25.32.74.07-2.45ZM442.53,31.04c.02-.83-.46-1.09-1.34-1.12l-22.63-.66c-.88-.03-1.33.21-1.35,1.04l-.04,1.37,25.32.74.04-1.37ZM436.98,14.8c-.92,1.35-1.94,2.59-3.05,3.73-.5.48-1,.71-1.49.69-.34,0-.68-.17-1.02-.42-.38-.3-.62-.75-.6-1.24.01-.39.17-.83.57-1.16,2.07-2.05,4.02-4.88,5.33-7.98.26-.63.76-.91,1.4-.89.2,0,.44.06.68.12.78.22,1.2.77,1.18,1.41,0,.25-.06.49-.22.73-.31.68-.63,1.31-.99,1.98l12.49.37c.83.02,1.21.58,1.18,1.55s-.44,1.56-1.27,1.53l-14.2-.42ZM435.27,22.79c-.78-.02-1.16-.67-1.13-1.6.02-.83.44-1.46,1.17-1.44l13.91.41c.74.02,1.11.62,1.08,1.5-.03.93-.44,1.56-1.17,1.53l-13.86-.41Z"/>
      <path class="cls-1" d="M473.64,26.81c-.62-.42-.85-.96-.82-1.55.01-.34.13-.73.29-1.07.32-.63.98-1.19,1.71-1.16.29.01.63.12.92.33l17.56,11.41c1.19.83,1.8,1.54,1.75,2.91-.05,1.32-.71,1.98-1.92,2.62l-18.44,10.18c-.3.18-.6.27-.89.26-.78-.03-1.35-.59-1.67-1.29-.13-.35-.22-.74-.2-1.09.02-.59.29-1.12.94-1.48l17.48-9.43-16.71-10.64Z"/>
      <path class="cls-1" d="M500.42,27.84c-.62-.42-.84-.97-.82-1.55.01-.34.13-.73.29-1.07.32-.62.98-1.18,1.72-1.15.29.01.63.12.92.33l17.51,11.49c1.19.83,1.8,1.55,1.74,2.92-.06,1.32-.72,1.98-1.93,2.62l-18.48,10.1c-.3.18-.6.27-.89.26-.78-.03-1.35-.6-1.66-1.3-.13-.35-.21-.74-.2-1.09.03-.59.29-1.12.95-1.48l17.51-9.35-16.66-10.72Z"/>
    </g>
  </g>
</svg>