<svg width="15" height="15" viewBox="0 0 15 15" fill="none" xmlns="http://www.w3.org/2000/svg">
<path d="M13.6069 14.5834C11.9672 14.5834 10.3472 14.226 8.74693 13.5114C7.14662 12.7968 5.6906 11.7833 4.37887 10.4711C3.06714 9.15883 2.05396 7.70281 1.33933 6.10303C0.624703 4.50325 0.267126 2.88326 0.266602 1.24308C0.266602 1.00696 0.345305 0.810206 0.502713 0.652798C0.66012 0.495391 0.85688 0.416687 1.09299 0.416687H4.28049C4.46413 0.416687 4.6281 0.479125 4.77239 0.604002C4.91668 0.728878 5.00194 0.876317 5.02818 1.04632L5.53975 3.80095C5.56598 4.01082 5.55943 4.18791 5.52007 4.3322C5.48072 4.47649 5.40858 4.6011 5.30364 4.70604L3.39507 6.63428C3.65742 7.11962 3.96882 7.58843 4.32929 8.04072C4.68975 8.493 5.08668 8.92928 5.52007 9.34956C5.92671 9.75619 6.35302 10.1334 6.79901 10.4813C7.245 10.8292 7.71722 11.1472 8.21568 11.4352L10.0652 9.58567C10.1833 9.46761 10.3375 9.3792 10.528 9.32044C10.7185 9.26167 10.9052 9.24514 11.0884 9.27085L13.8036 9.82178C13.9873 9.87425 14.1381 9.96948 14.2562 10.1075C14.3742 10.2455 14.4333 10.3995 14.4333 10.5695V13.757C14.4333 13.9931 14.3546 14.1898 14.1972 14.3472C14.0398 14.5047 13.843 14.5834 13.6069 14.5834Z" fill="white"/>
</svg>
