<?xml version="1.0" encoding="UTF-8"?>
<svg id="_レイヤー_2" data-name="レイヤー 2" xmlns="http://www.w3.org/2000/svg" xmlns:xlink="http://www.w3.org/1999/xlink" viewBox="0 0 680 163.6">
  <defs>
    <style>
      .cls-1 {
        fill: #231815;
      }

      .cls-2, .cls-3, .cls-4, .cls-5 {
        stroke: #231815;
        stroke-linecap: round;
        stroke-linejoin: round;
        stroke-width: 1.18px;
      }

      .cls-2, .cls-6 {
        fill: #ff0096;
      }

      .cls-3 {
        fill: #eeeeef;
      }

      .cls-4 {
        fill: #fff;
      }

      .cls-7, .cls-5 {
        fill: none;
      }

      .cls-8 {
        fill: #fc54b0;
      }

      .cls-9 {
        fill: #fff2f9;
      }

      .cls-10 {
        clip-path: url(#clippath);
      }
    </style>
    <clipPath id="clippath">
      <path class="cls-7" d="M162.61,136.51c40.5-6.61,80.83-13.09,120.98-19.44V36.47h-120.98v100.04Z"/>
    </clipPath>
  </defs>
  <g id="_レイヤー_1-2" data-name="レイヤー 1">
    <path class="cls-9" d="M680,0H0v163.6c232.27-39.45,459.23-74.86,680-105.56V0Z"/>
    <g>
      <path class="cls-8" d="M162.61,136.51C108.58,94.36,39.46,50.01,0,27.72v47.69c16.15,26.82,34.61,49.06,52.73,79.3,36.77-6.17,73.39-12.23,109.88-18.19Z"/>
      <path class="cls-6" d="M0,75.41v88.19c17.61-2.99,35.18-5.95,52.73-8.89C34.61,124.46,20.84,104.82,0,75.41Z"/>
      <path class="cls-6" d="M283.59,117.07C225.17,86.41,89.29,20.92,40.47,0H0v27.72c46.09,28.05,101.53,64.44,162.61,108.79,40.5-6.61,80.83-13.09,120.98-19.44Z"/>
    </g>
    <g class="cls-10">
      <g>
        <g>
          <g>
            <path class="cls-3" d="M248.36,113.84h-14.26c-.04-1.97.13-8.14.37-10.66,0,0-3.08.38-7.3.38,0-7,4.86-15.93,10.27-17.45,3.42,1.91,8.12,2.24,10.93,2.24h1.79c2.81,0,7.51-.33,10.93-2.24,5.31,2.28,10.27,10.24,10.27,17.45-4.22,0-7.3-.38-7.3-.38.24,2.52.41,8.69.37,10.66h-16.05Z"/>
            <path class="cls-4" d="M254.93,87.64c-2.99.32-7.71.6-11.33.26.22,2.58,1.4,5.41,5.42,5.41,3.47,0,6.16-3.03,5.91-5.66Z"/>
            <path class="cls-4" d="M265.5,142.61c3.09,1.76,4.06,2.58,3.94,4.03s-.98,2.96-2.33,3.52-3.62.57-4.85.38-6.58-1.09-8.05-1.82-1.94-2.08-1.59-3.49,1.37-2.33,2.28-2.62h10.6Z"/>
            <path class="cls-4" d="M233.07,142.61c-3.09,1.76-4.06,2.58-3.94,4.03s.98,2.96,2.33,3.52,3.62.57,4.85.38,6.58-1.09,8.05-1.82,1.94-2.08,1.59-3.49-1.37-2.33-2.28-2.62h-10.6Z"/>
            <path class="cls-3" d="M232.48,130.9c-1.51,2.74-3.81,6.04-.31,12.46h12.77c-.44-3.3-1.2-9.19,3.84-12.02h.96c5.03,2.83,4.28,8.72,3.84,12.02h12.77c3.49-6.42,1.2-9.72-.31-12.46l-1.32-1.64h-30.9l-1.33,1.64Z"/>
            <polygon class="cls-2" points="233.86 116.11 264.65 116.11 267.12 132.37 231.38 132.37 233.86 116.11"/>
            <rect class="cls-2" x="233.05" y="113.28" width="32.41" height="3.59" rx=".84" ry=".84" transform="translate(498.51 230.15) rotate(180)"/>
          </g>
          <g>
            <g>
              <g>
                <path class="cls-4" d="M235.03,56.8c-.11,2.01-1.47,1.81-2.87,10.02-4.05,5.37-3.76,9.22-1.46,13.23,2.64,4.6,8.19,8,15.84,9.22,6.44,1.03,24.87,3.09,26.33-19.59,1.48-22.92-36.66-30.43-37.84-12.88Z"/>
                <path class="cls-4" d="M269.76,72.8c1.6-1.85,4.41-2.21,5.41.52s-1.25,6.62-5.2,5.81"/>
              </g>
              <path class="cls-2" d="M273.61,74.88c-6.31-3.44-26.85-13.16-33.68-11.85-3.69.71-6.22,2.5-9.23,4.64,1.05-6.62,4.29-13.98,4.92-15.17s.95-2.86,4.41-4.06c2.5-.87,11.43-1.44,13.34-1.46s7.57-.1,11.32,3.11c2.81,2.4,7.38,7.86,9.38,16.12.57,2.26.04,7.25-.44,8.67Z"/>
              <path class="cls-2" d="M278.99,75.76c.56.85,0,1.35-.9,1.69s-3.79.07-4.92-1.31-1.95-3.22-1.07-4.2,2.5-1.47,3.8-.03,3.08,3.85,3.08,3.85Z"/>
              <path class="cls-2" d="M280.37,71.48c.77-1.06,1.27-1.81-.71-2.67s-4.16-1.39-5.56.4-.04,2.66,1.03,3.14,3.08,1.44,5.23-.87Z"/>
            </g>
            <g>
              <ellipse class="cls-1" cx="244.17" cy="72.04" rx="1.74" ry="1.25" transform="translate(134.5 301.78) rotate(-80.92)"/>
              <ellipse class="cls-1" cx="256.62" cy="74" rx="1.74" ry="1.25" transform="translate(143.05 315.72) rotate(-80.92)"/>
            </g>
            <path class="cls-5" d="M248.41,74.11c.16-.99,1.08-1.67,2.07-1.51s1.67,1.08,1.51,2.07"/>
            <path class="cls-5" d="M253.03,80.98c-.72,2.08-3.2,3.32-4.82,3.06s-3.38-2.79-3.17-5.09c.2-2.15,2.54-2.29,4.65-1.83s4.04,1.82,3.34,3.86Z"/>
          </g>
          <g>
            <path class="cls-4" d="M237.71,97.35c1.65-.62,2.99-1.41,3.72-3.63s1.75-4.72,2.2-5.94,2.79-2.79,4.49-.68,1.02,8.96.91,9.84-1.61,3.83-3.67,3.9-2.84,1.7-3.45,2.95-3.15,6.71-7.39,6.55c-4.24-.16-5.67-2.43-5.53-4.17s2.06-6.31,8.73-8.82Z"/>
            <path class="cls-4" d="M260.8,97.35c-1.65-.62-2.99-1.41-3.72-3.63s-1.75-4.72-2.2-5.94-2.79-2.79-4.49-.68-1.02,8.96-.91,9.84,1.61,3.83,3.67,3.9,2.84,1.7,3.45,2.95,3.15,6.71,7.39,6.55c4.24-.16,5.67-2.43,5.53-4.17s-2.06-6.31-8.73-8.82Z"/>
          </g>
        </g>
        <g>
          <path class="cls-4" d="M221.04,102.47c.25,3.99-.55,14.08-8.62,17.01,0,0-4.07-3.61-.77-17.01h9.39Z"/>
          <path class="cls-4" d="M183.92,103.56c-1.16,4.3-2.02,8.49-4.29,9.92-2.05,1.29-5.69.4-6.21-1.96-.47-2.09.87-9.25,1.38-9.83l9.12,1.87Z"/>
          <g>
            <path class="cls-2" d="M197.62,118.36h-15c-1,1.74-1.83,5.14-1.8,6.46s-.35,3.61-1.11,4.97-2.7,3.81-2.56,6.67c.14,2.86,1.07,6.7,2,8.03h12.78s1.28-.03,1.31-1.63-.41-4.56-.14-5.65,2.59-5.61,4.49-7.21c1.9,1.6,4.22,6.12,4.49,7.21s-.17,4.05-.14,5.65,1.31,1.63,1.31,1.63h12.78c.93-1.33,1.87-5.17,2-8.03s-1.8-5.31-2.56-6.67-1.14-3.64-1.11-4.97-.79-4.73-1.8-6.46h-15Z"/>
            <path class="cls-4" d="M181.9,150.6h8.2c1.17,0,3.46-.27,3.92-1.68s.2-3.21-1.67-4.52c-1.77-1.24-3.43-2.14-6.67-2.14-2.42,0-6.16.53-7.69,1.77-1.23,1-1.77,2.84-.37,4.72s3.2,1.86,4.28,1.86Z"/>
            <path class="cls-4" d="M213.34,150.6h-8.2c-1.17,0-3.46-.27-3.92-1.68s-.2-3.21,1.67-4.52c1.77-1.24,3.43-2.14,6.67-2.14,2.42,0,6.16.53,7.69,1.77,1.23,1,1.77,2.84.37,4.72s-3.2,1.86-4.28,1.86Z"/>
          </g>
          <path class="cls-2" d="M197.6,119.48h-16.45c2.28-1.68,1.72-8.98,1.4-15.87h-9.78c.79-10.43,7-13.43,10.25-15.14,4.1,2.4,9.55,2.99,14.61,2.99s10.51-.59,14.61-2.99c3.25,1.71,9.46,4.71,10.25,15.14h-9.78c-.33,6.89-.89,14.19,1.4,15.87h-16.45"/>
          <polygon class="cls-4" points="197.62 97.13 201.22 93.29 194.03 93.29 197.62 97.13"/>
          <path class="cls-4" d="M178.45,113.67c-.63,1.16-3.73,2.12-6.43.6s-2.84-7.05-2.9-11.41c-1.8-.43-3.26-1.62-3.77-3.32-.81-2.72,1.12-5.7,4.32-6.66,3.2-.96,6.45.48,7.26,3.2.53,1.79.47,3.34-1.14,4.95,1.5,1.63,5.05,8.26,2.67,12.65Z"/>
          <g>
            <path class="cls-2" d="M197.62,97.13s-5.67,1.61-7.01,3.53c-.41-3.08-2.04-8.94-2.04-8.94l5.94.59,3.11,4.81Z"/>
            <path class="cls-2" d="M197.62,97.13s5.67,1.61,7.01,3.53c.41-3.08,2.04-8.94,2.04-8.94l-5.94.59-3.11,4.81Z"/>
          </g>
          <g>
            <g>
              <g>
                <path class="cls-4" d="M176.89,71.36c-1.72-1.14-4.13-1.13-4.4,1.8s3.18,4.46,4.99,4.59l-.59-6.39Z"/>
                <path class="cls-4" d="M218.35,71.36c1.72-1.14,4.13-1.13,4.4,1.8s-3.18,4.46-4.99,4.59l.59-6.39Z"/>
              </g>
              <path class="cls-4" d="M197.62,93.81c-9.59,0-13.13-2.23-16.35-4.72-4.94-3.81-5.76-13.66-4.83-20.05.64-4.43,6.06-12.52,21.18-12.52s20.54,8.09,21.18,12.52c.92,6.39.1,16.24-4.83,20.05-3.22,2.49-6.76,4.72-16.35,4.72"/>
              <g>
                <ellipse class="cls-1" cx="191.3" cy="73.59" rx="1.74" ry="1.25" transform="translate(117.22 264.7) rotate(-89.85)"/>
                <ellipse class="cls-1" cx="203.9" cy="73.59" rx="1.74" ry="1.25" transform="translate(129.79 277.3) rotate(-89.85)"/>
              </g>
              <path class="cls-5" d="M195.81,74.97c0-1,.81-1.81,1.81-1.81s1.81.81,1.81,1.81"/>
              <path class="cls-5" d="M201.77,78.3c-1.02,1.15-2.51,1.88-4.17,1.88s-3.1-.7-4.12-1.82"/>
            </g>
            <g>
              <path class="cls-2" d="M197.6,47.09c-10.07,0-15.97,4.67-19.1,8.26s-3.28,9.99-2.81,15.15c.05.56.52,1.63,1.25,0s2.13-2.93,3.55-4.25c2.12-1.96,7.18-3.54,10.24-4.05s4.77-.64,6.87-.64,3.81.13,6.87.64,8.12,2.09,10.24,4.05c1.42,1.31,2.82,2.61,3.55,4.25s1.2.57,1.25,0c.47-5.16.32-11.57-2.81-15.15s-9.03-8.26-19.1-8.26Z"/>
              <path class="cls-2" d="M215.96,67.38c-.39-.38-.8-.76-1.21-1.14-2.12-1.96-7.18-3.54-10.24-4.05s-4.77-.64-6.87-.64-3.81.13-6.87.64-8.12,2.09-10.24,4.05c-.41.38-.82.76-1.21,1.14.83.93,2.02,1.41,4.58,1.41s6.36-1.12,8.78-2.45,3.47-1.63,4.97-1.63,2.55.31,4.97,1.63,6.23,2.45,8.78,2.45,3.74-.48,4.58-1.41"/>
              <ellipse class="cls-4" cx="197.6" cy="46.02" rx="2.4" ry="1.75"/>
              <path class="cls-4" d="M197.6,61.56c-2.11,0-3.81.13-6.87.64-2.34.39-5.86,1.41-8.33,2.74-1.29-5.59.37-12.29,2.51-14.77,2.57-1.44,6.84-3.07,12.69-3.07,5.85,0,10.12,1.64,12.69,3.07,2.14,2.48,3.8,9.18,2.51,14.77-2.47-1.34-5.99-2.35-8.33-2.74-3.06-.51-4.77-.64-6.87-.64"/>
            </g>
          </g>
        </g>
      </g>
    </g>
  </g>
</svg>