<svg width="16" height="15" viewBox="0 0 16 15" fill="none" xmlns="http://www.w3.org/2000/svg">
<path d="M14.5249 15C12.7888 15 11.0735 14.6217 9.37907 13.865C7.68462 13.1083 6.14296 12.0353 4.75407 10.6458C3.36518 9.25639 2.2924 7.71472 1.53574 6.02083C0.779069 4.32694 0.400458 2.61167 0.399902 0.875C0.399902 0.625 0.483236 0.416667 0.649902 0.25C0.816569 0.0833333 1.0249 0 1.2749 0H4.6499C4.84435 0 5.01796 0.066111 5.17074 0.198333C5.32351 0.330556 5.41379 0.486667 5.44157 0.666667L5.98324 3.58333C6.01101 3.80556 6.00407 3.99306 5.9624 4.14583C5.92074 4.29861 5.84435 4.43056 5.73324 4.54167L3.7124 6.58333C3.99018 7.09722 4.3199 7.59361 4.70157 8.0725C5.08324 8.55139 5.50351 9.01333 5.9624 9.45833C6.39296 9.88889 6.84435 10.2883 7.31657 10.6567C7.78879 11.025 8.28879 11.3617 8.81657 11.6667L10.7749 9.70833C10.8999 9.58333 11.0632 9.48972 11.2649 9.4275C11.4666 9.36528 11.6643 9.34778 11.8582 9.375L14.7332 9.95833C14.9277 10.0139 15.0874 10.1147 15.2124 10.2608C15.3374 10.4069 15.3999 10.57 15.3999 10.75V14.125C15.3999 14.375 15.3166 14.5833 15.1499 14.75C14.9832 14.9167 14.7749 15 14.5249 15Z" fill="#FF008C"/>
</svg>
