<?xml version="1.0" encoding="UTF-8"?>
<svg id="_レイヤー_2" data-name="レイヤー 2" xmlns="http://www.w3.org/2000/svg" xmlns:xlink="http://www.w3.org/1999/xlink" viewBox="0 0 1920 279.52">
  <defs>
    <style>
      .cls-1 {
        fill: #231815;
      }

      .cls-2 {
        fill: #fff;
      }

      .cls-2, .cls-3, .cls-4, .cls-5 {
        stroke: #231815;
        stroke-linecap: round;
        stroke-linejoin: round;
        stroke-width: 1.99px;
      }

      .cls-6, .cls-3 {
        fill: none;
      }

      .cls-7 {
        fill: #fc54b0;
      }

      .cls-4, .cls-8 {
        fill: #ff0096;
      }

      .cls-9 {
        fill: #fff2f9;
      }

      .cls-10 {
        clip-path: url(#clippath);
      }

      .cls-5 {
        fill: #eeeeef;
      }
    </style>
    <clipPath id="clippath">
      <path class="cls-6" d="M466.51,231.67c-17.2,1.73-34.41,3.46-51.63,5.2-55.7,5.62-111.51,11.3-167.44,17.03V99.08h219.07v132.59Z"/>
    </clipPath>
  </defs>
  <g id="_レイヤー_1-2" data-name="レイヤー 1">
    <path class="cls-9" d="M1920,0H0v279.52c655.82-68.59,1296.64-130.15,1920-183.54V0Z"/>
    <g>
      <path class="cls-7" d="M414.88,236.87C262.03,159.38,71.81,63.48,0,27.99v81.7c41.04,47.55,88.16,102.32,134.14,155.88,93.9-9.71,187.48-19.28,280.74-28.69Z"/>
      <path class="cls-8" d="M134.14,265.57C88.16,212.01,41.04,157.24,0,109.68v169.83c44.79-4.68,89.5-9.33,134.14-13.95Z"/>
      <path class="cls-8" d="M724.74,206.03C595.88,159.15,267.7,41.66,148.08,0H0v27.99c71.81,35.49,262.03,131.39,414.88,208.88,103.68-10.47,206.98-20.75,309.86-30.85Z"/>
    </g>
    <g class="cls-10">
      <g>
        <g>
          <g>
            <path class="cls-5" d="M400.9,222.72h-24c-.07-3.32.21-13.7.62-17.94,0,0-5.19.64-12.29.64,0-11.79,8.18-26.8,17.28-29.37,5.75,3.22,13.66,3.78,18.39,3.78h3.01c4.73,0,12.64-.55,18.39-3.78,8.93,3.84,17.28,17.24,17.28,29.37-7.1,0-12.29-.64-12.29-.64.41,4.24.69,14.62.62,17.94h-27.02Z"/>
            <path class="cls-2" d="M411.96,178.62c-5.03.54-12.97,1.02-19.06.43.37,4.35,2.35,9.1,9.11,9.1,5.83,0,10.37-5.09,9.95-9.53Z"/>
            <path class="cls-2" d="M429.75,271.13c5.2,2.97,6.84,4.34,6.63,6.78s-1.64,4.98-3.92,5.93-6.09.95-8.15.64-11.07-1.83-13.56-3.07-3.27-3.51-2.67-5.87c.61-2.42,2.3-3.93,3.84-4.41h17.83Z"/>
            <path class="cls-2" d="M375.17,271.13c-5.2,2.97-6.84,4.34-6.63,6.78s1.64,4.98,3.92,5.93,6.09.95,8.15.64,11.07-1.83,13.56-3.07,3.27-3.51,2.67-5.87-2.3-3.93-3.84-4.41h-17.83Z"/>
            <path class="cls-5" d="M374.17,251.43c-2.54,4.61-6.41,10.17-.53,20.97h21.5c-.74-5.56-2.01-15.46,6.46-20.23h1.61c8.47,4.77,7.2,14.67,6.46,20.23h21.5c5.88-10.8,2.01-16.36-.53-20.97l-2.22-2.75h-52l-2.24,2.75Z"/>
            <polygon class="cls-4" points="376.5 226.54 428.31 226.54 432.48 253.9 372.33 253.9 376.5 226.54"/>
            <rect class="cls-4" x="375.14" y="221.78" width="54.54" height="6.04" rx="1.41" ry="1.41" transform="translate(804.81 449.6) rotate(180)"/>
          </g>
          <g>
            <g>
              <g>
                <path class="cls-2" d="M378.47,126.72c-.18,3.39-2.47,3.04-4.84,16.86-6.82,9.04-6.33,15.52-2.46,22.26,4.45,7.74,13.78,13.47,26.66,15.52,10.85,1.73,41.85,5.2,44.32-32.97,2.49-38.57-61.69-51.21-63.69-21.68Z"/>
                <path class="cls-2" d="M436.93,153.65c2.69-3.11,7.42-3.72,9.11.88s-2.1,11.14-8.75,9.79"/>
              </g>
              <path class="cls-4" d="M443.39,157.15c-10.63-5.79-45.19-22.15-56.69-19.94-6.22,1.19-10.47,4.21-15.54,7.8,1.76-11.14,7.21-23.52,8.28-25.53s1.59-4.81,7.42-6.83c4.2-1.46,19.24-2.43,22.44-2.45s12.73-.16,19.05,5.23c4.73,4.04,12.43,13.23,15.78,27.12.97,3.81.06,12.19-.74,14.6Z"/>
              <path class="cls-4" d="M452.46,158.64c.95,1.44,0,2.27-1.51,2.84s-6.38.11-8.28-2.21-3.29-5.42-1.8-7.06,4.21-2.47,6.4-.05,5.19,6.48,5.19,6.48Z"/>
              <path class="cls-4" d="M454.78,151.43c1.29-1.78,2.14-3.05-1.19-4.5s-7-2.34-9.35.68-.06,4.47,1.74,5.29,5.19,2.42,8.8-1.46Z"/>
            </g>
            <g>
              <ellipse class="cls-1" cx="393.86" cy="152.37" rx="2.93" ry="2.11" transform="translate(181.24 517.25) rotate(-80.92)"/>
              <ellipse class="cls-1" cx="414.8" cy="155.66" rx="2.93" ry="2.11" transform="translate(195.63 540.71) rotate(-80.92)"/>
            </g>
            <path class="cls-3" d="M400.99,155.85c.26-1.67,1.82-2.8,3.49-2.54s2.8,1.82,2.54,3.49"/>
            <path class="cls-3" d="M408.76,167.42c-1.22,3.51-5.39,5.58-8.11,5.14s-5.68-4.7-5.33-8.56c.33-3.62,4.28-3.86,7.83-3.08s6.8,3.06,5.61,6.5Z"/>
          </g>
          <g>
            <path class="cls-2" d="M382.97,194.96c2.78-1.05,5.04-2.37,6.26-6.11s2.94-7.94,3.7-10,4.7-4.7,7.56-1.15,1.72,15.08,1.53,16.57-2.71,6.45-6.18,6.57-4.77,2.86-5.8,4.96-5.31,11.3-12.44,11.03c-7.14-.27-9.54-4.08-9.31-7.02s3.47-10.61,14.7-14.85Z"/>
            <path class="cls-2" d="M421.84,194.96c-2.78-1.05-5.04-2.37-6.26-6.11s-2.94-7.94-3.7-10-4.7-4.7-7.56-1.15-1.72,15.08-1.53,16.57,2.71,6.45,6.18,6.57,4.77,2.86,5.8,4.96,5.31,11.3,12.44,11.03c7.14-.27,9.54-4.08,9.31-7.02s-3.47-10.61-14.7-14.85Z"/>
          </g>
        </g>
        <g>
          <path class="cls-2" d="M354.92,203.59c.42,6.72-.92,23.7-14.51,28.63,0,0-6.85-6.07-1.3-28.63h15.81Z"/>
          <path class="cls-2" d="M292.46,205.42c-1.95,7.24-3.41,14.29-7.21,16.69-3.44,2.17-9.57.67-10.46-3.29-.79-3.51,1.47-15.57,2.33-16.55l15.34,3.15Z"/>
          <g>
            <path class="cls-4" d="M315.51,230.33h-25.24c-1.69,2.92-3.08,8.65-3.02,10.88s-.58,6.07-1.86,8.36-4.54,6.41-4.3,11.22,1.8,11.28,3.37,13.51h21.52s2.15-.06,2.21-2.75-.7-7.67-.23-9.5,4.36-9.45,7.56-12.14c3.2,2.69,7.09,10.31,7.56,12.14s-.29,6.81-.23,9.5,2.21,2.75,2.21,2.75h21.52c1.57-2.23,3.14-8.7,3.37-13.51s-3.02-8.93-4.3-11.22-1.92-6.13-1.86-8.36-1.34-7.96-3.02-10.88h-25.24Z"/>
            <path class="cls-2" d="M289.06,284.59h13.8c1.98,0,5.82-.46,6.59-2.82s.34-5.4-2.81-7.62c-2.97-2.09-5.78-3.61-11.23-3.61-4.07,0-10.37.9-12.95,2.98-2.08,1.68-2.99,4.77-.62,7.94s5.39,3.13,7.21,3.13Z"/>
            <path class="cls-2" d="M341.97,284.59h-13.8c-1.98,0-5.82-.46-6.59-2.82s-.34-5.4,2.81-7.62c2.97-2.09,5.78-3.61,11.23-3.61,4.07,0,10.37.9,12.95,2.98,2.08,1.68,2.99,4.77.62,7.94s-5.39,3.13-7.21,3.13Z"/>
          </g>
          <path class="cls-4" d="M315.48,232.2h-27.68c3.84-2.82,2.9-15.11,2.35-26.7h-16.47c1.33-17.55,11.77-22.6,17.25-25.48,6.9,4.04,16.08,5.04,24.58,5.04s17.68-.99,24.58-5.04c5.48,2.88,15.92,7.93,17.25,25.48h-16.47c-.55,11.6-1.49,23.88,2.35,26.7h-27.68"/>
          <polygon class="cls-2" points="315.51 194.59 321.56 188.14 309.47 188.14 315.51 194.59"/>
          <path class="cls-2" d="M283.24,222.43c-1.06,1.96-6.29,3.56-10.83,1.01s-4.77-11.87-4.88-19.21c-3.04-.72-5.49-2.73-6.35-5.59-1.37-4.58,1.88-9.59,7.26-11.2,5.38-1.61,10.85.8,12.22,5.38.9,3.01.8,5.62-1.91,8.33,2.52,2.75,8.49,13.89,4.49,21.28Z"/>
          <g>
            <path class="cls-4" d="M315.51,194.59s-9.55,2.7-11.8,5.95c-.69-5.19-3.44-15.04-3.44-15.04l10,.99,5.23,8.1Z"/>
            <path class="cls-4" d="M315.51,194.59s9.55,2.7,11.8,5.95c.69-5.19,3.44-15.04,3.44-15.04l-10,.99-5.23,8.1Z"/>
          </g>
          <g>
            <g>
              <g>
                <path class="cls-2" d="M280.63,151.22c-2.9-1.91-6.95-1.91-7.41,3.03-.46,4.94,5.34,7.5,8.4,7.73l-.99-10.76Z"/>
                <path class="cls-2" d="M350.4,151.22c2.9-1.91,6.95-1.91,7.41,3.03s-5.34,7.5-8.4,7.73l.99-10.76Z"/>
              </g>
              <path class="cls-2" d="M315.51,189.01c-16.14,0-22.09-3.75-27.51-7.94-8.31-6.41-9.69-22.99-8.13-33.74,1.08-7.46,10.2-21.07,35.65-21.07s34.57,13.61,35.65,21.07c1.55,10.75.17,27.33-8.13,33.74-5.42,4.19-11.37,7.94-27.51,7.94"/>
              <g>
                <ellipse class="cls-1" cx="304.87" cy="154.98" rx="2.93" ry="2.11" transform="translate(149.12 459.46) rotate(-89.85)"/>
                <ellipse class="cls-1" cx="326.08" cy="154.98" rx="2.93" ry="2.11" transform="translate(170.27 480.66) rotate(-89.85)"/>
              </g>
              <path class="cls-3" d="M312.46,157.31c0-1.69,1.37-3.05,3.05-3.05s3.05,1.37,3.05,3.05"/>
              <path class="cls-3" d="M322.49,162.91c-1.72,1.94-4.23,3.16-7.02,3.16s-5.22-1.18-6.94-3.07"/>
            </g>
            <g>
              <path class="cls-4" d="M315.48,110.38c-16.94,0-26.88,7.86-32.14,13.89-5.27,6.03-5.52,16.81-4.73,25.5.09.94.88,2.74,2.1,0s3.58-4.94,5.97-7.15c3.57-3.3,12.08-5.95,17.23-6.81s8.02-1.07,11.57-1.07,6.42.21,11.57,1.07,13.67,3.51,17.23,6.81c2.39,2.21,4.75,4.4,5.97,7.15s2.01.95,2.1,0c.79-8.69.53-19.47-4.73-25.5-5.27-6.03-15.2-13.89-32.14-13.89Z"/>
              <path class="cls-4" d="M346.38,144.53c-.66-.65-1.34-1.28-2.03-1.92-3.57-3.3-12.08-5.95-17.23-6.81s-8.02-1.07-11.57-1.07-6.42.21-11.57,1.07-13.67,3.51-17.23,6.81c-.69.64-1.37,1.27-2.03,1.92,1.4,1.57,3.41,2.37,7.7,2.37s10.71-1.89,14.77-4.12,5.84-2.75,8.36-2.75,4.3.52,8.36,2.75,10.48,4.12,14.77,4.12,6.3-.8,7.7-2.37"/>
              <ellipse class="cls-2" cx="315.48" cy="108.58" rx="4.05" ry="2.94"/>
              <path class="cls-2" d="M315.48,134.73c-3.55,0-6.42.21-11.57,1.07-3.95.66-9.86,2.37-14.02,4.62-2.17-9.41.62-20.68,4.23-24.86,4.33-2.42,11.51-5.17,21.36-5.17,9.85,0,17.03,2.76,21.36,5.17,3.61,4.18,6.4,15.45,4.23,24.86-4.16-2.25-10.07-3.96-14.02-4.62-5.15-.86-8.02-1.07-11.57-1.07"/>
            </g>
          </g>
        </g>
      </g>
    </g>
  </g>
</svg>