<?xml version="1.0" encoding="UTF-8"?>
<svg id="_レイヤー_2" data-name="レイヤー 2" xmlns="http://www.w3.org/2000/svg" viewBox="0 0 378.26 80.72">
  <defs>
    <style>
      .cls-1 {
        fill: #fff;
      }

      .cls-2 {
        fill: #ff0096;
      }
    </style>
  </defs>
  <g id="_レイヤー_1-2" data-name="レイヤー 1">
    <g>
      <g>
        <rect class="cls-1" x="6.42" y="6.42" width="371.84" height="74.3"/>
        <rect class="cls-2" y="0" width="371.84" height="74.3"/>
      </g>
      <g>
        <path class="cls-1" d="M34.36,25.87c1.05,0,3.31,1.31,5.73,3.05,2.26,1.63,2.94,2.52,2.94,3.58,0,1.52-1.42,3.42-3.1,3.42-.53,0-1.52-.47-2.58-1.31-1.16-.95-2.68-1.95-3.63-2.58-1.68-1.1-2.31-1.74-2.31-2.79,0-1.63,1.26-3.37,2.94-3.37ZM44.45,42.96c0,2.31-3.73,10.52-4.89,12.94-1.31,2.89-2.47,5-4.21,5-1.63,0-3.52-1.1-3.52-2.89,0-.79,1-2.73,2.26-5.1,1.74-3.26,3.31-7.1,4.73-10.67.42-1.16,1.16-1.79,2.42-1.79,1.47,0,3.21.84,3.21,2.52ZM39.67,21.56c-1.52-1.05-3.05-2.05-4.63-3.05-1.16-.74-2.26-1.47-2.26-2.84,0-1.63,1.31-3.31,3.05-3.31.74,0,1.31.16,1.95.53.79.47,3.05,1.74,3.73,2.21,1.52,1,3.26,2.16,3.26,3.68,0,1.21-1.16,3.47-3.15,3.47-.74,0-1.37-.26-1.95-.68ZM77.47,15.2c1.74,0,2.68.58,2.68,2.47s-.95,2.42-2.68,2.42h-11.78v1.84h10.99c1.52,0,2.26.58,2.26,2.16s-.84,2.1-2.26,2.1h-10.99v2h12.51c1.84,0,2.79.79,2.79,2.68,0,1.74-1.1,2.47-2.79,2.47h-31.55c-1.73,0-2.79-.79-2.79-2.58s1.05-2.58,2.79-2.58h12.67v-2h-10.52c-1.58,0-2.26-.63-2.26-2.21s.84-2.05,2.26-2.05h10.52v-1.84h-11.31c-1.84,0-2.73-.63-2.73-2.58,0-1.79,1.1-2.31,2.73-2.31h11.31v-1.16c0-1.95,1.58-2.26,3.15-2.26s3.21.32,3.21,2.26v1.16h11.78ZM53.29,52.22v6.1c0,2.42-1,3.21-3.37,3.21-2.16,0-2.94-1.16-2.94-3.21v-17.4c0-4.1,1.58-5.73,5.68-5.73h19.67c4.1,0,5.73,1.63,5.73,5.73v14.57c0,5.05-1.95,5.73-8.73,5.73-4.63,0-5.78-.32-5.78-2.84,0-1.95,1.16-2.58,2.94-2.58,1.1,0,2.26.05,3.37.05,1.31,0,1.74-.21,1.74-1.58v-2.05h-18.3ZM71.58,42.23v-.79c0-.89-.37-1.31-1.26-1.31h-15.72c-.89,0-1.31.47-1.31,1.31v.79h18.3ZM53.29,46.12v2.1h18.3v-2.1h-18.3Z"/>
        <path class="cls-1" d="M109.02,32.03h22.35c4.52,0,5.47.95,5.47,5.47v2.89c0,2.05-.84,3.15-2.94,3.15-.21,0-.37,0-.58-.05.32.95.37,1.89.37,2.84v7.26c0,4-1.79,4.68-5.42,4.68-2.42,0-4.31-.21-4.31-3.37,0-1.58.47-2.58,2.16-2.63,1.21-.05,1.79-.21,1.79-1.63v-4.31c0-.84-.42-1.26-1.26-1.26h-4v13.46c0,2-.79,3.15-2.89,3.15s-2.68-1.37-2.68-3.15v-13.46h-3.79c-.84,0-1.26.42-1.26,1.26v9.2c0,2-.79,3.15-2.94,3.15-2,0-2.68-1.37-2.68-3.15v-9.2c0-.95.05-1.89.32-2.79h-.37c-2,0-2.73-1.16-2.84-3.05-.68.89-2.58,1.52-3.68,1.89v12.83c0,5.42-1.52,5.89-6.52,5.89-2.84,0-4.89-.26-4.89-3.63,0-2,1.05-2.89,3-2.89h.68c1.21,0,1.58-.26,1.58-1.52v-8.73c-.89.26-2.21.63-3.15.63-1.89,0-2.73-1.84-2.73-3.52,0-2.47,1.73-2.89,5.89-3.68v-10.46h-2.58c-2.21,0-3.1-1.05-3.1-3.21s1.05-3.05,3.1-3.05h2.58v-6.41c0-2.21,1.16-2.84,3.21-2.84,1.95,0,2.94.84,2.94,2.84v6.41h2.1c2,0,2.63,1.42,2.63,3.26,0,1.68-.74,3-2.58,3h-2.16v8.68c.63-.21,1.26-.42,1.89-.42.84,0,1.42.47,1.79,1.21.16-4.21,1.68-4.73,5.52-4.73ZM108.39,24.19c-1.52,0-2.1-.74-2.1-2.21,0-1.37.79-1.95,2.1-1.95h19.72v-.68c0-.84-.42-1.26-1.26-1.26h-19.09c-1.58,0-2.58-.68-2.58-2.37s1-2.37,2.58-2.37h20.72c4.84,0,5.89,1.05,5.89,5.89v5.21c0,4.84-1.05,5.89-5.89,5.89h-20.98c-1.58,0-2.31-.63-2.31-2.21,0-1.47.89-2.05,2.31-2.05h19.35c.84,0,1.26-.42,1.26-1.26v-.63h-19.72ZM112.54,40.18h4.52v-3.37h-6.52c-.79,0-1.26.37-1.26,1.21v2.63c1.05-.42,2.1-.47,3.26-.47ZM122.64,40.18h4.84c1.21,0,2.26.05,3.42.47v-2.63c0-.84-.53-1.21-1.26-1.21h-6.99v3.37Z"/>
        <path class="cls-1" d="M173.34,27.09c.88-.04,2.78-.18,3.53-.18,1.77,0,2.91.79,2.91,2.65,0,2.52-1.77,2.65-3.58,2.69-5.03.13-10.11.35-15.15.4l-.62,5.87c3.14-.04,6.27-.04,9.36-.26.4-.04.97-.09,1.32-.09,1.77,0,2.87.79,2.87,2.65,0,1.46-.71,2.38-2.16,2.61-1.46.22-9.41.4-11.26.4h-.35c-.09,0-.18,0-.27.04-.09,1.28-.18,2.61-.18,3.93,0,1.94.18,3.97,1.85,5.25,1.63,1.28,4.64,1.5,6.67,1.5,5.83,0,9.85-1.41,9.85-7.99,0-1.77-.44-3.62-1.02-5.3-.22-.57-.49-1.24-.49-1.9,0-1.55,1.59-2.25,2.96-2.25,1.63,0,2.52.88,3.22,2.25,1.06,2.08,1.46,5.21,1.46,7.55,0,10.55-6.54,13.25-15.94,13.25-3.89,0-7.9-.44-11.04-2.96-2.87-2.3-3.44-5.96-3.44-9.41,0-1.32.09-2.61.18-3.93h-1.28c-1.81,0-4.46-.04-5.34-.26-1.1-.27-1.63-1.37-1.63-2.47,0-1.9,1.15-2.65,2.91-2.65,1.94,0,3.84.09,5.78.09l.53-5.92h-1.46c-1.81,0-4.42,0-5.25-.22-1.1-.31-1.59-1.46-1.59-2.52,0-1.9,1.19-2.65,2.96-2.65,1.94,0,3.89.09,5.78.13l.31-3.44c.18-2.21.79-3,3.18-3,2.08,0,3.22,1.06,3,3.14l-.35,3.27c3.93-.04,7.82-.09,11.75-.27Z"/>
        <path class="cls-1" d="M210.02,20.98c2.1,0,2.79.89,2.79,2.94,0,1.89-.95,2.68-2.79,2.68h-15.3c-1.95,0-2.84-.84-2.84-2.84s.89-2.79,2.84-2.79h15.3ZM208.39,13.2c2,0,2.84.84,2.84,2.84,0,1.89-1.05,2.63-2.84,2.63h-12.2c-1.95,0-2.84-.84-2.84-2.79s1-2.68,2.84-2.68h12.2ZM208.29,28.82c2,0,2.79.84,2.79,2.84,0,1.89-.95,2.68-2.79,2.68h-12.15c-2,0-2.79-.89-2.79-2.84s1-2.68,2.79-2.68h12.15ZM208.29,36.55c1.89,0,2.79.84,2.79,2.79,0,2.05-1,2.73-2.94,2.73h-11.99c-1.95,0-2.79-.89-2.79-2.84s1-2.63,2.79-2.68h12.15ZM210.97,55.11c0,4.47-1,5.52-5.47,5.52h-6.42c-4.47,0-5.47-1.05-5.47-5.52v-5.42c0-4.47,1-5.47,5.52-5.47h6.31c4.52,0,5.52,1,5.52,5.47v5.42ZM201.03,49.27c-.84,0-1.26.42-1.26,1.26v3.42c0,.84.42,1.26,1.26,1.26h2.94c.84,0,1.26-.42,1.26-1.26v-3.42c0-.89-.42-1.26-1.26-1.26h-2.94ZM239.26,54.32c1.42.53,2.21,1.1,2.21,2.79,0,1.89-1.21,3.89-3.31,3.89-2.94,0-8.94-3.58-11.41-5.26-2.58,1.79-9.57,5.42-12.57,5.42-1.89,0-3.05-1.95-3.05-3.68s.95-2.26,2.42-2.73c2.63-.89,5.78-1.79,8.15-3.21-1.68-1.68-5.52-5.99-5.52-8.41,0-1.68,1.73-2.63,3.26-2.63,1.16,0,1.68.32,2.26,1.26,1.42,2.31,3,4.26,5.05,5.99,1.58-1.52,4.63-5.68,4.63-6.99,0-.68-.74-.84-1.26-.84h-14.09c-2.26,0-3.21-.89-3.21-3.15,0-2.1,1.26-2.94,3.21-2.94h17.4c3.37,0,5.26,1.05,5.26,4.73,0,4.42-3.84,9.62-6.73,12.67,2.31,1.26,4.79,2.26,7.31,3.1ZM227.95,12.94c4.84,0,5.89,1.05,5.89,5.89v5.63c0,1.16.58,1.16,1.52,1.16,1.1,0,1.26-.42,1.47-3.31.05-1.21.1-2.47,2.05-2.47,1.74,0,2.84.53,2.84,2.42,0,1.63-.32,5.78-1.1,7.15-1.1,2-3.1,2.1-5.15,2.1h-.95c-4.52,0-6.57-.16-6.57-5.94v-5.1c0-.79-.42-1.26-1.26-1.26h-3.26c-.84,0-1.26.11-1.42,1.37-.26,3.21-.95,7.15-2.94,9.78-.79,1.05-1.74,2.05-3.21,2.05-1.68,0-3.42-1.37-3.42-3.15,0-.95.53-1.58,1.05-2.26,1.63-2.05,2.37-3.47,2.63-6.05.16-1.26.26-4.26.37-4.94.58-2.94,2.89-3.05,5.31-3.05h6.15Z"/>
        <path class="cls-1" d="M258.34,58.79c0,2.16-1.05,2.84-3.1,2.84s-2.84-.89-2.84-2.84v-21.09c-.47.37-.95.58-1.52.58-1.95,0-3-2.16-3-3.84,0-1.37,1-3.26,2.58-5.68,2.58-4,3.89-9.83,5-14.72.37-1.52,1-2.21,2.58-2.21,1.68,0,3.1.79,3.1,2.58s-1.63,8.2-2.79,11.31v33.07ZM283,15.88v-1.79c0-2.21,1.58-2.47,3.37-2.47,1.68,0,2.89.58,2.89,2.47v1.79h4.79c1.84,0,2.73.79,2.73,2.63s-1.1,2.52-2.73,2.52h-4.79v3.47h6.1c1.89,0,2.73.79,2.73,2.68s-1.1,2.47-2.73,2.47h-27.34v9.62c0,5.15-.63,11.83-2.21,16.77-1.16,3.73-1.58,4.52-3.26,4.52s-3.42-.79-3.42-2.63c0-.95.89-3.42,1.21-4.42,1.47-4.47,2.05-9.31,2.05-13.99v-9.89h-1.05c-1.31,0-1.79-1.37-1.79-2.47,0-2,.89-2.68,2.79-2.68h6.73v-3.47h-4.73c-1.79,0-2.73-.79-2.73-2.68,0-1.79,1.1-2.47,2.73-2.47h4.73v-1.74c0-2.21,1.52-2.52,3.37-2.52,1.68,0,2.94.63,2.94,2.47v1.79h7.62ZM275.06,58.84c0,1.89-.79,2.73-2.79,2.73-1.84,0-2.58-1-2.58-2.73v-21.35c0-4.1,1.63-5.68,5.73-5.68h14.83c4.1,0,5.73,1.58,5.73,5.68v18.56c0,4.84-1.79,5.05-5.99,5.05-2.26,0-3.63-.42-3.63-2.79,0-1.47.63-2.42,2.21-2.42h.37c.74,0,1.26-.47,1.26-1.52v-3h-5.05v6.94c0,1.74-.74,2.73-2.58,2.73s-2.63-.95-2.63-2.73v-6.94h-4.89v7.47ZM279.96,36.34h-3.37c-.74,0-1.52.05-1.52,1.26v1.95h4.89v-3.21ZM275.06,43.86v3.31h4.89v-3.31h-4.89ZM275.38,21.04v3.47h7.62v-3.47h-7.62ZM290.16,39.55v-1.95c0-.84-.42-1.26-1.26-1.26h-3.73v3.21h5ZM285.16,47.17h5v-3.31h-5v3.31Z"/>
        <path class="cls-1" d="M333.86,27.09c.88-.04,2.78-.18,3.53-.18,1.77,0,2.91.79,2.91,2.65,0,2.52-1.77,2.65-3.58,2.69-5.03.13-10.11.35-15.15.4l-.62,5.87c3.14-.04,6.27-.04,9.36-.26.4-.04.97-.09,1.32-.09,1.77,0,2.87.79,2.87,2.65,0,1.46-.71,2.38-2.16,2.61-1.46.22-9.41.4-11.26.4h-.35c-.09,0-.18,0-.27.04-.09,1.28-.18,2.61-.18,3.93,0,1.94.18,3.97,1.85,5.25,1.63,1.28,4.64,1.5,6.67,1.5,5.83,0,9.85-1.41,9.85-7.99,0-1.77-.44-3.62-1.02-5.3-.22-.57-.49-1.24-.49-1.9,0-1.55,1.59-2.25,2.96-2.25,1.63,0,2.52.88,3.22,2.25,1.06,2.08,1.46,5.21,1.46,7.55,0,10.55-6.54,13.25-15.94,13.25-3.89,0-7.9-.44-11.04-2.96-2.87-2.3-3.44-5.96-3.44-9.41,0-1.32.09-2.61.18-3.93h-1.28c-1.81,0-4.46-.04-5.34-.26-1.1-.27-1.63-1.37-1.63-2.47,0-1.9,1.15-2.65,2.91-2.65,1.94,0,3.84.09,5.78.09l.53-5.92h-1.46c-1.81,0-4.42,0-5.25-.22-1.1-.31-1.59-1.46-1.59-2.52,0-1.9,1.19-2.65,2.96-2.65,1.94,0,3.89.09,5.79.13l.31-3.44c.18-2.21.79-3,3.18-3,2.08,0,3.22,1.06,3,3.14l-.35,3.27c3.93-.04,7.82-.09,11.75-.27Z"/>
      </g>
    </g>
  </g>
</svg>