<?xml version="1.0" encoding="UTF-8"?>
<svg id="_レイヤー_2" data-name="レイヤー 2" xmlns="http://www.w3.org/2000/svg" viewBox="0 0 826.38 107.51">
  <defs>
    <style>
      .cls-1 {
        fill: #231815;
      }

      .cls-2 {
        fill: #fff;
      }

      .cls-3 {
        fill: #ff0096;
      }
    </style>
  </defs>
  <g id="_レイヤー_1-2" data-name="レイヤー 1">
    <g>
      <g>
        <rect class="cls-3" x="7.7" y="7.7" width="818.68" height="99.8"/>
        <rect class="cls-2" width="818.68" height="99.8"/>
      </g>
      <g>
        <path class="cls-3" d="M80.03,36.11v3.45h18.77c2.72,0,4.05,1.13,4.05,3.91s-1.66,3.65-4.05,3.65h-18.77v7.03h11.01c5.57,0,7.69,2.12,7.69,7.63v10.68c0,5.51-2.12,7.69-7.69,7.69h-27.73c-5.51,0-7.63-2.19-7.63-7.69v-10.68c0-5.51,2.12-7.63,7.63-7.63h8.69v-18.04c0-2.52,1-3.38,3.38-3.58h-18.97c-1.92,0-2.85.99-2.85,2.85v14.39c0,8.16-.99,18.31-3.78,26-.86,2.32-1.92,5.04-4.78,5.04-2.45,0-4.64-1.66-4.64-4.25,0-1.13.73-2.98,1.79-5.64,1.46-3.71,3.18-9.88,3.18-21.23v-16.18c0-6.43,2.45-8.89,8.89-8.89h14.13v-2.39c0-3.12,1.92-3.71,4.58-3.71s4.18.93,4.18,3.71v2.39h21.69c2.98,0,4.05,1.26,4.05,4.18,0,2.72-1.46,3.71-4.05,3.71h-22.15c2.39.2,3.38,1.06,3.38,3.58ZM66.03,61.51c-1.53,0-2.26.8-2.26,2.32v6.37c0,1.53.73,2.26,2.26,2.26h22.15c1.59,0,2.32-.73,2.32-2.26v-6.37c0-1.53-.73-2.26-2.32-2.32h-22.15Z"/>
        <path class="cls-3" d="M142.9,25.89h10.55v-3.85c0-2.72,1.53-3.38,3.98-3.38,2.32,0,3.58.93,3.58,3.38v3.85h5.17c-1.66-1.72-2.65-2.79-2.65-3.85,0-1.92,2.39-3.12,4.05-3.12,1.33,0,2.26.93,3.32,1.92,1.39,1.19,2.45,2.39,2.45,3.58,0,.6-.2.99-.53,1.53,2.32.2,2.98,1.59,2.98,3.71,0,2.45-1.19,3.52-3.58,3.52h-11.21v3.78h4.97c6.1,0,7.56,1.26,7.56,7.43v29.25c0,5.64-1.33,7.43-7.23,7.43-3.05,0-4.31-1.13-4.31-4.25,0-2.45.66-3.12,2.92-3.38,1.06-.13,1.53-.53,1.53-1.59v-5.51h-5.44v11.08c0,2.52-1.53,3.52-3.91,3.52s-3.65-1.26-3.65-3.52v-11.08h-5.44v11.94c0,2.26-1.26,3.25-3.45,3.25s-3.25-1.19-3.25-3.25v-33.89c0-6.17,1.46-7.43,7.56-7.43h4.58v-3.78h-10.55c-.6,0-1.26-.07-1.46-.13-.33,1.79-1.72,3.52-3.71,3.52-1.59,0-3.05-1.66-4.05-2.79-1.79-1.92-3.38-4.11-4.91-6.23-.46-.66-.6-.73-.86-.73-.33,0-.46.27-1,1.13-1.72,2.79-6.5,9.49-9.35,10.94.46-.07.86-.07,1.33-.07h5.24v-2.52c0-2.39,1.26-3.52,3.65-3.52s3.58,1.13,3.58,3.52v2.52h4.25c2.32,0,3.58.99,3.58,3.45s-1.26,3.45-3.58,3.45h-4.25v4.05h6.1c2.32,0,3.52,1.13,3.52,3.52s-1.33,3.38-3.52,3.38h-20.76c-2.39,0-3.58-1.13-3.58-3.58,0-2.32,1.39-3.32,3.58-3.32h7.43v-4.05h-5.24c-2.32,0-3.52-1.06-3.52-3.52,0-1.26.33-2.26,1.39-2.98-.2,0-.33.07-.53.07-2.12,0-3.85-2.19-3.85-4.25,0-1.39.73-2.12,1.79-2.98,4.11-3.52,5.9-5.97,8.76-10.55,1.19-1.99,2.59-2.72,4.91-2.72,3.71,0,4.58,2.06,6.63,4.84,1.39,1.92,3.05,3.65,4.84,5.24.33-2.26,1.39-2.98,3.58-2.98ZM138.52,73.05c0,6.1-1.33,7.43-7.43,7.43h-8.03c-6.04,0-7.43-1.39-7.43-7.43v-5.84c0-6.1,1.39-7.43,7.43-7.43h8.03c6.1,0,7.43,1.26,7.43,7.43v5.84ZM124.79,66.29c-1.06,0-1.59.53-1.59,1.53v4.51c0,.99.53,1.53,1.59,1.53h5.17c1.06,0,1.59-.53,1.59-1.53v-4.51c0-1.06-.53-1.53-1.59-1.53h-5.17ZM153.45,48.97v-5.24h-3.91c-1,0-1.53.6-1.53,1.59v3.65h5.44ZM148.01,55.01v5.37h5.44v-5.37h-5.44ZM166.45,45.33c0-.99-.53-1.59-1.59-1.59h-3.85v5.24h5.44v-3.65ZM161.01,55.01v5.37h5.44v-5.37h-5.44Z"/>
        <path class="cls-1" d="M205.08,67.56c-2.34,3.83-5.32,7.03-10.12,7.03-8.63,0-11.49-9.66-11.49-16.69,0-16.29,11.66-26.7,27.62-26.7,14.75,0,24.18,8.92,24.18,23.84,0,4.75-.91,9.03-3.66,13.04-2.52,3.66-6.12,6.63-10.18,8.52-2.69,1.14-7.49,2.52-10.41,2.52-2.4,0-3.83-1.54-3.83-3.89,0-2.97,2-3.32,4.23-3.66,10.29-1.49,15.95-6.4,15.95-17.21,0-8.86-4.86-15.38-14.01-16.01-1.09,8.75-3.72,21.78-8.29,29.22ZM197.47,42.52c-4.57,3.77-6.69,9.66-6.69,15.49,0,2.63.92,8.58,4.52,8.58,2.97,0,4.8-5.03,5.66-7.32,2.69-7.26,3.94-13.15,4.97-20.75-3.14.74-6,1.89-8.46,4Z"/>
        <path class="cls-3" d="M246.31,36.64c1.33,0,4.18,1.66,7.23,3.85,2.85,2.06,3.71,3.18,3.71,4.51,0,1.92-1.79,4.31-3.91,4.31-.66,0-1.92-.6-3.25-1.66-1.46-1.19-3.38-2.45-4.58-3.25-2.12-1.39-2.92-2.19-2.92-3.52,0-2.06,1.59-4.25,3.71-4.25ZM259.05,58.19c0,2.92-4.71,13.27-6.17,16.32-1.66,3.65-3.12,6.3-5.31,6.3-2.06,0-4.44-1.39-4.44-3.65,0-.99,1.26-3.45,2.85-6.43,2.19-4.11,4.18-8.95,5.97-13.46.53-1.46,1.46-2.26,3.05-2.26,1.86,0,4.05,1.06,4.05,3.18ZM253.01,31.2c-1.92-1.33-3.85-2.59-5.84-3.85-1.46-.93-2.85-1.86-2.85-3.58,0-2.06,1.66-4.18,3.85-4.18.93,0,1.66.2,2.45.66,1,.6,3.85,2.19,4.71,2.79,1.92,1.26,4.11,2.72,4.11,4.64,0,1.53-1.46,4.38-3.98,4.38-.93,0-1.72-.33-2.45-.86ZM300.7,23.17c2.19,0,3.38.73,3.38,3.12s-1.19,3.05-3.38,3.05h-14.86v2.32h13.86c1.92,0,2.85.73,2.85,2.72s-1.06,2.65-2.85,2.65h-13.86v2.52h15.79c2.32,0,3.52.99,3.52,3.38,0,2.19-1.39,3.12-3.52,3.12h-39.8c-2.19,0-3.52-.99-3.52-3.25s1.33-3.25,3.52-3.25h15.99v-2.52h-13.27c-1.99,0-2.85-.8-2.85-2.79s1.06-2.59,2.85-2.59h13.27v-2.32h-14.26c-2.32,0-3.45-.8-3.45-3.25,0-2.26,1.39-2.92,3.45-2.92h14.26v-1.46c0-2.45,1.99-2.85,3.98-2.85s4.05.4,4.05,2.85v1.46h14.86ZM270.19,69.87v7.69c0,3.05-1.26,4.05-4.25,4.05-2.72,0-3.71-1.46-3.71-4.05v-21.96c0-5.17,1.99-7.23,7.16-7.23h24.81c5.17,0,7.23,2.06,7.23,7.23v18.37c0,6.37-2.45,7.23-11.01,7.23-5.84,0-7.3-.4-7.3-3.58,0-2.45,1.46-3.25,3.71-3.25,1.39,0,2.85.07,4.25.07,1.66,0,2.19-.27,2.19-1.99v-2.59h-23.08ZM293.27,57.26v-.99c0-1.13-.46-1.66-1.59-1.66h-19.83c-1.13,0-1.66.6-1.66,1.66v.99h23.08ZM270.19,62.17v2.65h23.08v-2.65h-23.08Z"/>
        <path class="cls-3" d="M341.49,44.4h28.19c5.7,0,6.9,1.19,6.9,6.9v3.65c0,2.59-1.06,3.98-3.71,3.98-.27,0-.46,0-.73-.07.4,1.19.46,2.39.46,3.58v9.15c0,5.04-2.26,5.9-6.83,5.9-3.05,0-5.44-.27-5.44-4.25,0-1.99.6-3.25,2.72-3.32,1.53-.07,2.26-.27,2.26-2.06v-5.44c0-1.06-.53-1.59-1.59-1.59h-5.04v16.98c0,2.52-1,3.98-3.65,3.98s-3.38-1.72-3.38-3.98v-16.98h-4.78c-1.06,0-1.59.53-1.59,1.59v11.61c0,2.52-.99,3.98-3.71,3.98-2.52,0-3.38-1.72-3.38-3.98v-11.61c0-1.19.07-2.39.4-3.52h-.46c-2.52,0-3.45-1.46-3.58-3.85-.86,1.13-3.25,1.92-4.64,2.39v16.18c0,6.83-1.92,7.43-8.23,7.43-3.58,0-6.17-.33-6.17-4.58,0-2.52,1.33-3.65,3.78-3.65h.86c1.53,0,1.99-.33,1.99-1.92v-11.01c-1.13.33-2.79.8-3.98.8-2.39,0-3.45-2.32-3.45-4.44,0-3.12,2.19-3.65,7.43-4.64v-13.2h-3.25c-2.79,0-3.91-1.33-3.91-4.05s1.33-3.85,3.91-3.85h3.25v-8.09c0-2.79,1.46-3.58,4.05-3.58s3.71,1.06,3.71,3.58v8.09h2.65c2.52,0,3.32,1.79,3.32,4.11,0,2.12-.93,3.78-3.25,3.78h-2.72v10.94c.8-.27,1.59-.53,2.39-.53,1.06,0,1.79.6,2.26,1.53.2-5.31,2.12-5.97,6.96-5.97ZM340.69,34.51c-1.92,0-2.65-.93-2.65-2.79,0-1.72,1-2.45,2.65-2.45h24.87v-.86c0-1.06-.53-1.59-1.59-1.59h-24.08c-1.99,0-3.25-.86-3.25-2.98s1.26-2.98,3.25-2.98h26.13c6.1,0,7.43,1.33,7.43,7.43v6.57c0,6.1-1.33,7.43-7.43,7.43h-26.47c-1.99,0-2.92-.8-2.92-2.79,0-1.86,1.13-2.59,2.92-2.59h24.41c1.06,0,1.59-.53,1.59-1.59v-.8h-24.87ZM345.93,54.68h5.7v-4.25h-8.22c-1,0-1.59.46-1.59,1.53v3.32c1.33-.53,2.65-.6,4.11-.6ZM358.67,54.68h6.1c1.53,0,2.85.07,4.31.6v-3.32c0-1.06-.66-1.53-1.59-1.53h-8.82v4.25Z"/>
        <path class="cls-1" d="M396.99,33.31c0,.97-1.14,7.2-1.37,9.15-.57,4.8-.8,9.66-.8,14.52s.29,10.69,1.03,15.61c.29,1.89.4,2.74.4,3.37,0,2.46-1.49,3.37-3.77,3.37-1.94,0-3.03-.8-3.54-2.69-1.09-4.23-1.49-15.44-1.49-20.07,0-7.49.57-15.44,1.89-22.81.4-2.34,1.2-3.77,3.77-3.77,2.29,0,3.89.8,3.89,3.32ZM417.57,33.77c-.06-2.69,1.09-4,3.83-4s3.77,1.26,3.83,3.95l.06,6.12c1.66-.06,5.83-.29,7.15-.29,2.4,0,3.66,1.09,3.66,3.6,0,4.06-3.03,3.54-10.69,3.83l.17,12.64c3.37,1.83,6.58,3.95,9.32,6.58,1.03.97,2.06,2.23,2.06,3.77,0,2.06-1.66,4.12-3.83,4.12-1.26,0-2.06-.74-2.86-1.6-2.06-2.29-2.69-2.74-5.03-4.57-.11,2.92-.11,5.72-2.06,8.06-2.34,2.8-6.58,3.43-10.01,3.43-7.09,0-13.44-3.37-13.44-11.26s6.52-11.26,13.44-11.26c1.77,0,3.26.23,4.97.57l-.23-10.18c-4.8.11-9.66.23-14.47.23-2.52,0-3.83-.91-3.83-3.6s1.37-3.49,3.83-3.54c4.75-.06,9.49-.11,14.29-.23l-.17-6.35ZM413.23,63.1c-3.32,0-6.98,1.26-6.98,5.2,0,3.66,3.2,4.92,6.4,4.92,5.55,0,5.66-3.26,5.66-6.35,0-.91,0-1.77-.06-2.74-1.77-.69-3.03-1.03-5.03-1.03Z"/>
        <path class="cls-3" d="M451.2,62.7c9.42,0,29.78,3.32,39.33,5.51,5.17,1.19,8.76,1.99,8.76,5.44,0,2.52-1.39,4.97-4.25,4.97-1.39,0-6.37-1.39-9.68-2.32-6.83-1.86-17.18-3.32-24.41-4.11-3.58-.4-7.1-.73-10.81-.99-2.45-.2-4.11-1.26-4.11-3.98,0-3.45,2.06-4.51,5.17-4.51ZM454.51,41.68c2.98,0,11.34.99,14.66,1.46,5.84.8,11.74,1.79,17.51,3.18,4.44,1.06,6.7,1.59,6.7,4.58,0,2.32-1.13,4.71-3.78,4.71-1.13,0-7.03-1.53-9.35-2.12-7.76-1.99-17.91-2.98-25.87-3.85-2.45-.27-4.25-.93-4.25-3.71s1.59-4.25,4.38-4.25ZM455.24,21.91c7.96,0,26.6,2.52,34.62,4.18,4.38.93,7.03,1.59,7.03,4.91,0,2.39-1.13,4.78-3.85,4.78-1.53,0-6.96-1.39-8.82-1.79-6.04-1.39-15.06-2.65-21.29-3.18-2.52-.2-7.1-.46-9.35-.86-2.19-.4-3.32-1.59-3.32-3.85,0-3.32,2.06-4.18,4.97-4.18Z"/>
        <path class="cls-3" d="M532.05,63.37c0,5.7,2.79,5.9,10.41,5.9h4.84c2.39,0,4.91,0,7.63-.13,1.66-.07,4.98-.4,6.37-.4,2.79,0,4.31,1.13,4.31,4.05,0,3.25-1.79,4.38-4.78,4.58-4.05.27-8.03.4-12.67.4h-6.43c-4.84,0-11.14-.13-14.66-2.79-3.38-2.59-3.98-6.63-3.98-10.61v-20.3l-6.04.53c-.6.07-3.12.33-3.98.33-2.26,0-4.18-1.26-4.18-4.44,0-2.92,1.53-3.98,4.25-4.18l9.95-.8v-10.88c0-3.12,1.66-4.11,4.64-4.11,2.79,0,4.31,1.26,4.31,4.11v10.21l20.63-1.46c1.72-.13,5.24-.46,6.7-.46,3.78,0,6.5,1.53,6.5,5.51,0,5.44-3.85,11.74-7.56,15.45-2.45,2.45-8.09,7.16-11.54,7.16-2.65,0-4.31-2.52-4.31-4.31,0-1.59,1.06-2.45,3.98-4.25,1.86-1.13,5.17-3.98,7.3-6.57,1.06-1.33,1.72-2.65,1.72-3.65,0-.73-.53-.93-1.19-.93-.6,0-1.99.13-3.18.27l-19.04,1.66v20.1Z"/>
        <path class="cls-3" d="M614.49,25.36c0-3.12,1.66-4.18,4.58-4.18s4.25,1.33,4.25,4.18v8.22h6.96c2.72,0,4.38,1.33,4.38,4.18s-1.66,4.11-4.38,4.11h-6.96v7.76c0,11.87-3.58,20.16-14.73,25.34-3.91,1.86-10.94,4.11-15.26,4.11-3.05,0-4.58-2.32-4.58-4.84,0-2.65,1.92-3.38,4.18-3.71,6.63-.93,13.66-2.59,18.11-7.96,2.92-3.58,3.45-8.69,3.45-13.13v-7.56h-20.3v13.13c0,3.12-1.59,4.11-4.51,4.11s-4.18-1.33-4.18-4.11v-13.13h-6.83c-2.72,0-4.38-1.26-4.38-4.11s1.66-4.18,4.38-4.18h6.83v-8.09c0-3.05,1.59-4.11,4.51-4.11s4.18,1.33,4.18,4.11v8.09h20.3v-8.22Z"/>
        <path class="cls-3" d="M660.78,49.37c0,.73-.33,1.99-.8,3.58-1.19,4.31-3.65,10.75-4.78,12.8-.66,1.26-1.79,3.32-3.12,5.11-1.92,2.59-3.18,3.58-4.91,3.58-2.52,0-5.31-1.86-5.31-4.58,0-1.26.66-2.19,1.46-3.12,2.45-3.05,3.58-4.51,5.24-8.16,1.39-3.05,2.45-6.23,3.32-9.49.6-2.19,1.33-3.52,3.91-3.52,2.32,0,4.97.99,4.97,3.78ZM666.22,24.96c0-3.18,1.66-4.25,4.64-4.25s4.31,1.33,4.31,4.25v7.16h17.91c-3.12-.93-5.31-3.65-5.31-6.96,0-3.98,3.25-7.3,7.3-7.3s7.3,3.25,7.3,7.3c0,3.65-2.72,6.63-6.3,7.16,1.79.53,2.52,2.19,2.52,3.91,0,2.92-1.66,4.18-4.44,4.18h-18.97v35.09c0,3.18-1.66,4.25-4.64,4.25s-4.31-1.33-4.31-4.25v-35.09h-18.9c-2.79,0-4.44-1.26-4.44-4.18s1.66-4.11,4.44-4.11h18.9v-7.16ZM685.72,45.59c2.59,0,3.38,1.33,3.91,3.52.8,3.25,1.92,6.43,3.32,9.49,1.66,3.58,2.79,5.11,5.24,8.16.8.93,1.46,1.86,1.46,3.18,0,2.65-2.85,4.51-5.31,4.51-1.33,0-2.65-.86-3.78-2.19-3.45-4.05-6.77-11.14-8.89-18.9-.46-1.79-.93-3.18-.93-4.05,0-2.72,2.65-3.71,4.98-3.71ZM691.69,25.09c0,1.92,1.53,3.45,3.38,3.45s3.38-1.53,3.38-3.45-1.53-3.38-3.38-3.38-3.38,1.53-3.38,3.38Z"/>
        <path class="cls-1" d="M708.19,55.1c3.43-4.4,6.35-9.15,9.38-13.84,2.29-3.54,4.35-6.69,9.03-6.69,2,0,3.66.69,5.15,2.12,2.69,2.57,5.72,7.15,7.95,10.29,4.97,7.03,10.23,14.01,16.41,20.07,1.66,1.6,3.03,2.97,3.03,4.75,0,2.4-1.89,4.57-4.35,4.57-1.31,0-2.46-.69-3.37-1.66-2.69-2.86-7.83-9.49-10.58-12.86-1.77-2.29-4.86-6.8-6.63-9.32-1.09-1.54-4.69-6.92-5.83-8-.57-.51-1.14-.8-1.89-.8-1.26,0-2.17,1.14-2.8,2.06-2.29,3.32-4.97,8.12-7.09,11.66-2.12,3.49-3.32,6.12-5.77,6.12-2.29,0-4.69-1.77-4.69-4.17,0-1.66,1.09-3.03,2.06-4.29Z"/>
        <path class="cls-1" d="M781.95,72.99c0,2.63-2.17,4.8-4.8,4.8s-4.8-2.17-4.8-4.8,2.17-4.8,4.8-4.8,4.8,2.17,4.8,4.8ZM779.66,60.87c-.17,1.72-.69,2.86-2.57,2.86-1.77,0-2.29-1.26-2.46-2.86l-1.6-15.78v-12.06c0-2.74,1.54-3.89,4.17-3.89s4.06,1.26,4.06,3.89v12.06l-1.6,15.78Z"/>
      </g>
    </g>
  </g>
</svg>