<?xml version="1.0" encoding="UTF-8"?>
<svg id="_レイヤー_2" data-name="レイヤー 2" xmlns="http://www.w3.org/2000/svg" viewBox="0 0 398.87 80.72">
  <defs>
    <style>
      .cls-1 {
        fill: #fff;
      }

      .cls-2 {
        fill: #ff0096;
      }
    </style>
  </defs>
  <g id="_レイヤー_1-2" data-name="レイヤー 1">
    <g>
      <g>
        <rect class="cls-1" x="6.42" y="6.42" width="392.45" height="74.3"/>
        <rect class="cls-2" width="392.45" height="74.3"/>
      </g>
      <g>
        <path class="cls-1" d="M54.17,31.71c3.58-.05,7.41-.16,10.52-.26,1.37-.05,2.84-.11,3.21-.11,1.95,0,3.1.89,3.1,3,0,1.52-.47,2.63-2.58,2.84-1.42.16-11.99.37-14.14.47l.1,6.15c4.94,1.63,10.94,5.15,14.99,8.47,1,.84,2.16,1.95,2.16,3.42,0,1.95-1.58,3.94-3.63,3.94-1.31,0-2.31-.84-3.63-2.1-2.63-2.42-6.62-5.15-9.83-6.73-.11,2.42-.42,5-1.84,7.05-2.31,3.26-6.31,3.84-10.04,3.84-6.2,0-14.72-2.16-14.72-9.83,0-4.15,2.89-7.31,6.68-8.62,2.58-.95,5.26-1.31,7.94-1.31,1.68,0,3.31.16,5,.37l-.1-4.52c-4.84.05-9.68.16-14.51.16-3.58,0-5.1-.16-5.1-3,0-2.05,1.21-2.94,3.16-2.94h2.47c4.63,0,9.25-.11,13.88-.11l-.1-4.78c-4.89.05-9.78.16-14.72.16-3.47,0-5.15-.11-5.15-3.05,0-2.42,1.52-2.94,3.68-2.94h2.31c4.57,0,9.2-.11,13.78-.11l-.05-3c-.05-2.37,1.52-3.1,3.63-3.1s3.31.95,3.31,3.1l.05,2.84c4.36-.11,10.04-.21,12.04-.32.89-.05,2-.11,2.31-.11,1.95,0,3.15.95,3.15,3,0,1.58-.68,2.73-2.47,2.94-1.31.16-12.62.42-14.93.47l.1,4.73ZM42.13,47.33c-2.79,0-7.78.63-7.78,4.36,0,3.42,4.84,4.1,7.41,4.1,5.15,0,5.73-1.84,5.73-6.52v-1.1c-1.89-.63-3.42-.84-5.36-.84Z"/>
        <path class="cls-1" d="M120.16,24.35c2.21,0,3.47,1.47,3.47,3.68,0,2.73-2.1,3.31-4.94,3.73-6.47,1.21-15.98,3.47-21.82,6.31-3.89,1.84-8.68,4.89-8.68,9.73,0,2.94,1.63,4.78,4.42,5.63,3.16.95,6.63,1.1,9.94,1.1,4.1,0,8.2-.37,12.3-1,1.1-.21,3.58-.63,4.57-.63,2.31,0,3.52,1.26,3.52,3.58s-1.26,3.05-3.31,3.52c-3.89.89-11.88,1.26-16.04,1.26-8.99,0-22.82-.89-22.82-12.94,0-5.05,2.79-9.52,6.89-12.36,2.68-1.84,5.36-3.1,8.26-4.47-.26-2.37-1.63-8.2-2.37-10.57-.26-.84-.79-2.63-.79-3.42,0-2.37,1.95-3.15,4-3.15,3.15,0,3.52,2,4.26,6.15.37,1.89,1.31,6.89,1.47,8.47,3.42-1.26,14.46-4.63,17.67-4.63Z"/>
        <path class="cls-1" d="M139.87,58.63c-2.89,0-5.47-1.74-6.89-4.21-1.31-2.31-1.79-5-1.79-7.62,0-6.26,2.42-11.67,6.84-16.04-.63-2.31-2.1-7.78-2.1-9.99s1.58-3.05,3.58-3.05c2.31,0,2.73,1.37,3.26,4.63.21,1.21.42,2.68.79,4.47,3.89-1.95,7.26-2.84,11.57-3.31.32-1.74.58-3.1.84-4.26.79-3.42,1.21-4.31,3.58-4.31,1.89,0,3.79.84,3.79,3,0,.95-1,4.84-1.31,5.94,10.15,1.68,16.09,7.47,16.09,18.09,0,4.42-1.37,9.25-4.26,12.67-2.42,2.84-5.78,4.52-9.31,5.63-2.37.68-5.47,1.26-7.89,1.26s-3.63-1.21-3.63-3.52,1.21-2.68,3.15-2.89c3.73-.42,7.15-.89,10.36-3.05,3.47-2.31,4.89-6.52,4.89-10.52,0-7.41-4.1-10.78-11.04-11.83-1.74,5.42-4.05,12.09-6.78,17.04,1.47,1.26,2.26,2.21,2.26,3.21,0,1.63-1.63,3.68-3.31,3.68-1.05,0-1.95-.63-2.73-1.26-2.47,3.1-5.73,6.26-9.94,6.26ZM140.19,37.28c-1.84,2.58-2.84,6.31-2.84,9.46,0,1.95.58,5.52,3.1,5.52,2.21,0,4.21-2.79,5.36-4.36-2.31-3.31-4.21-6.89-5.63-10.62ZM149.39,41.96c1.74-3.52,3.42-8.47,4.36-12.25-3.37.53-5.73,1.16-8.68,3,1.05,3.21,2.47,6.41,4.31,9.25Z"/>
        <path class="cls-1" d="M187.3,26.45c-2.42,0-3.47-1.42-3.47-3.79,0-3.15,2.16-3.42,4.73-3.58,4.89-.32,9.78-.42,14.72-.58,3.37-.16,6.73-.26,10.15-.32,3.89-.11,7.78-.26,12.15-.26,2.58,0,4.84.11,4.84,3.42s-2.47,3.47-5.31,3.47c-5.1,0-8.47,1.52-12.73,4.15-5.31,3.26-10.57,8.99-10.57,15.56,0,8.68,9.25,9.25,15.83,9.25h3.26c2.31,0,4.47.32,4.47,3.21,0,3.89-2.73,4.1-6.57,4.1-4.26,0-9.04-.58-13.15-1.79-4.15-1.26-7.26-3.05-9.36-6.94-1.21-2.16-1.68-4.68-1.68-7.15,0-6.05,2.63-10.46,6.73-14.67,2.42-2.47,4.42-3.84,7.36-5.57-2.52.16-20.88,1.47-21.4,1.47Z"/>
        <path class="cls-1" d="M278.58,25.82c0,1.74-2.16,2.1-3.52,2.1-2.16,0-2.73-.95-3.37-2.52-.32-.74-.63-1.68-1.1-2.68h-2.47c-.95,1.26-2.16,2.89-3.47,3.79.16.32.26.58.26.95v.89h14.62c4.84,0,5.89,1,5.89,5.89v2.89c0,2.37-1.26,2.79-3.42,2.79-1.1,0-2.1-.21-2.68-1.21.05.53.05,1.05.05,1.63v2.1c0,4.15-.95,5.05-5.05,5.05h-23.77v2.31h25.92c4.73,0,5.89,1,5.89,5.78v1.37c0,4.78-1.16,5.78-5.89,5.78h-26.76c-4.68,0-5.94-1.31-5.94-5.94v-15.62c0-.58,0-1.1.05-1.68-.74.37-1.58.42-2.37.42-2,0-3-.74-3-2.79v-2.89c0-4.84,1.1-5.89,5.94-5.89h14.41v-.89c0-.95.63-1.68,1.58-1.95-.37-.53-.63-.95-.63-1.58,0-.53.16-.95.37-1.37-.47.11-.84.16-1.31.16h-4.15c.58,1.47.89,2.52.89,3,0,1.79-2,2.21-3.42,2.21-2,0-2.52-.89-3-2.47-.26-.84-.47-1.68-.89-2.73h-1.52c-1.26,1.63-4.31,5.42-6.47,5.42-1.63,0-3.21-1.63-3.21-3.31,0-1.1.26-1.42,2.63-3.68,1.37-1.31,2.68-2.94,3.73-4.52,1.26-2,1.89-2.89,3.68-2.89,1.42,0,3.42.79,3.42,2.52,0,.42-.11.68-.26,1.05h8.57c1.89,0,2.73.84,2.73,2.79,0,.32,0,.58-.05.84,1-1.05,2.52-3.31,3.21-4.63.84-1.68,1.52-2.58,3.1-2.58,1.47,0,3.68.79,3.68,2.63,0,.37-.05.63-.16.95h12.62c1.95,0,2.79.89,2.79,2.84,0,1.84-1.05,2.58-2.79,2.58h-6.63c.79,1.42,1.26,2.73,1.26,3.1ZM279.05,34.29c0-.74-.42-1.1-1.16-1.1h-31.92c-.74,0-1.16.37-1.16,1.1v2.42c1.31-1.47,3.1-1.47,4.89-1.47h24.61c1.84,0,3.94,0,4.73,2v-2.94ZM271.85,42.96c.68,0,1.05-.37,1.05-1.05v-.79c0-.68-.37-1.05-1.05-1.05h-20.03c-.84,0-1.26.42-1.26,1.26v1.63h21.3ZM250.55,56.53c0,.84.42,1.26,1.26,1.26h22.82c.74,0,1.21-.47,1.21-1.26v-.79c0-.74-.47-1.26-1.21-1.26h-24.08v2.05Z"/>
        <path class="cls-1" d="M310.07,49.22c1.74,0,2.31,1.52,2.31,3,0,2.26-.95,2.68-4.52,3.89-2.31.79-9.31,3.15-11.41,3.15-1.89,0-2.79-2-2.79-3.68,0-2.1,1.1-2.58,3.89-3.1.84-.16,1.89-.42,2.79-.68v-13.09h-2.84c-1.95,0-2.84-1.1-2.84-3.05,0-1.79,1.05-2.84,2.84-2.84h2.84v-10.25h-3.37c-2.16,0-3-1.05-3-3.15,0-1.95,1.1-2.89,3-2.89h11.94c2.1,0,3,1.05,3,3.15,0,1.89-1,2.89-2.89,2.89h-2.63v10.25h2.26c1.89,0,2.73,1.21,2.73,3s-.95,2.89-2.73,2.89h-2.26v11.52c1.79-.63,3.05-1,3.68-1ZM330.21,45.33h9.41c2,0,2.89.89,2.89,2.94s-1.05,2.73-2.89,2.73h-9.41v5.21h10.25c2.1,0,3.15,1,3.15,3.1s-1.31,2.84-3.15,2.84h-28.18c-1.95,0-2.89-.89-2.89-2.84,0-2.1.79-3.1,2.89-3.1h11.73v-5.21h-8.83c-1.95,0-2.89-.84-2.89-2.79s.89-2.89,2.89-2.89h8.83v-4.36h-5.26c-4.36,0-6.05-1.68-6.05-6.1v-13.36c0-4.42,1.68-6.1,6.05-6.1h16.93c4.42,0,6.1,1.68,6.1,6.1v13.36c0,4.42-1.68,6.1-6.1,6.1h-5.47v4.36ZM324.11,21.04h-4.05c-1.05,0-1.52.53-1.52,1.58v3.21h5.57v-4.79ZM318.54,30.71v3.31c0,1,.47,1.52,1.52,1.52h4.05v-4.84h-5.57ZM335.78,25.82v-3.21c0-1.05-.53-1.58-1.52-1.58h-4.21v4.79h5.73ZM330.05,35.55h4.21c1,0,1.52-.53,1.52-1.52v-3.31h-5.73v4.84Z"/>
        <path class="cls-1" d="M367.33,55.48c0,2.42-2,4.42-4.42,4.42s-4.42-2-4.42-4.42,2-4.42,4.42-4.42,4.42,2,4.42,4.42ZM365.23,44.33c-.16,1.58-.63,2.63-2.37,2.63-1.63,0-2.1-1.16-2.26-2.63l-1.47-14.51v-11.09c0-2.52,1.42-3.58,3.84-3.58s3.73,1.16,3.73,3.58v11.09l-1.47,14.51Z"/>
      </g>
    </g>
  </g>
</svg>